<?xml version="1.0" standalone="no"?>
<!DOCTYPE svg PUBLIC "-//W3C//DTD SVG 1.1//EN" "http://www.w3.org/Graphics/SVG/1.1/DTD/svg11.dtd">
<svg xmlns="http://www.w3.org/2000/svg">
<defs >
<font id="Muli" horiz-adv-x="565" ><font-face
    font-family="Muli Medium"
    units-per-em="1000"
    panose-1="0 0 0 0 0 0 0 0 0 0"
    ascent="1005"
    descent="-250"
    alphabetic="0" />
<glyph unicode=" " horiz-adv-x="264" />
<glyph unicode="!" horiz-adv-x="235" d="M89 193L61 712H174L145 193H89ZM62 111H173V0H62V111Z" />
<glyph unicode="&quot;" horiz-adv-x="431" d="M84 429L60 712H167L145 429H84ZM288 429L264 712H371L349 429H288Z" />
<glyph unicode="#" horiz-adv-x="606" d="M310 0L449 712H519L379 0H310ZM37 182V246H549V182H37ZM87 0L227 712H296L157 0H87ZM57 475V538H569V475H57Z" />
<glyph unicode="$" horiz-adv-x="600" d="M302 -8Q225 -8 159 15T43 82L76 152Q129 108 182 89T300 69Q378 69 420 101T463 192Q463 228 441 249T383 283T303 307T216 330T136 365T77 422T55 513Q55 574 87 620T177 693T308 720Q354 720 398 710T480 680T547 632L514
562Q424 643 309 643Q235 643 192 610T149 517Q149 478 171 454T229 416T309 392T396 369T476 336T534 282T556 195Q556 134 524 89T435 18T302 -8ZM271 -116V8L275 52V669L271 706V828H349V706L345 669V52L349 8V-116H271Z" />
<glyph unicode="%" horiz-adv-x="851" d="M190 281Q116 281 73 335T30 499Q30 610 73 663T190 716Q264 716 306 663T349 499Q349 389 307 335T190 281ZM190 344Q229 344 248 380T268 499Q268 580 249 616T190 653Q151 653 132 617T112 499Q112 417 131 381T190
344ZM176 0L588 712H675L264 0H176ZM661 -4Q587 -4 544 50T501 214Q501 325 544 378T661 431Q735 431 777 378T820 214Q820 104 778 50T661 -4ZM661 59Q700 59 719 95T739 214Q739 295 720 331T661 368Q622 368 603 332T583 214Q583 132 602 96T661 59Z" />
<glyph unicode="&amp;" horiz-adv-x="674" d="M282 -7Q213 -7 161 16T79 82T50 181Q50 248 92 301T231 408Q294 444 329 470T379 520T394 569Q394 606 371 629T310 652Q268 652 242 627T216 561Q216 542 222 524T246 484T294 426L538 155Q566 125 602 99T686 54L638
-9Q588 13 549 40T482 99L219 390Q185 426 166 455T139 509T130 561Q130 609 152 644T215 699T309 719Q384 719 428 680T473 574Q473 533 455 499T393 431T277 354Q227 326 197 300T153 245T140 184Q140 130 179 98T285 66Q358 66 415 110T505 233T541 420H621Q617
324 591 246T520 112T415 24T282 -7Z" />
<glyph unicode="&apos;" horiz-adv-x="227" d="M84 429L60 712H167L145 429H84Z" />
<glyph unicode="(" horiz-adv-x="326" d="M220 -182Q178 -104 153 -30T116 117T104 266Q104 342 116 415T153 562T220 712H295Q258 623 237 547T207 402T198 266Q198 198 206 129T236 -16T294 -182H220Z" />
<glyph unicode=")" horiz-adv-x="326" d="M106 -182H31Q68 -93 89 -17T119 129T128 266Q128 333 119 402T89 547T31 712H106Q168 597 195 488T222 266Q222 190 211 117T174 -30T106 -182Z" />
<glyph unicode="*" horiz-adv-x="455" d="M140 358L86 398L181 520L32 563L53 628L198 575L193 729H260L255 574L401 628L422 563L273 520L369 398L313 358L227 487L140 358Z" />
<glyph unicode="+" horiz-adv-x="600" d="M546 322V253H54V322H546ZM266 534H334V41H266V534Z" />
<glyph unicode="," horiz-adv-x="235" d="M108 -119L67 -88Q95 -58 105 -33T115 19L141 0H62V111H173V34Q173 -9 159 -46T108 -119Z" />
<glyph unicode="-" horiz-adv-x="431" d="M72 232V306H359V232H72Z" />
<glyph unicode="." horiz-adv-x="235" d="M62 111H173V0H62V111Z" />
<glyph unicode="/" horiz-adv-x="292" d="M58 -56H-23L234 750H316L58 -56Z" />
<glyph unicode="0" horiz-adv-x="600" d="M300 -8Q177 -8 113 84T49 356Q49 535 112 627T300 720Q424 720 487 628T551 357Q551 178 487 85T300 -8ZM300 68Q381 68 419 138T458 357Q458 506 420 574T300 643Q219 643 181 574T142 357Q142 208 180 138T300 68Z" />
<glyph unicode="1" horiz-adv-x="600" d="M281 42V653L332 632L135 508V595L321 712H374V42H281ZM124 0V77H531V0H124Z" />
<glyph unicode="2" horiz-adv-x="600" d="M80 0V70L328 342Q376 396 398 439T421 527Q421 583 388 613T295 644Q244 644 194 624T95 563L61 633Q103 673 167 696T297 720Q364 720 412 698T487 633T514 532Q514 471 487 415T396 289L161 36L153 77H543V0H80Z" />
<glyph unicode="3" horiz-adv-x="600" d="M292 -7Q222 -7 158 15T50 80L85 150Q132 110 183 90T289 69Q363 69 401 101T439 198Q439 261 400 292T281 323H196V400H265Q342 400 382 433T422 528Q422 584 389 614T294 644Q242 644 193 624T95 563L61 633Q104 674
167 697T298 720Q364 720 412 698T487 634T514 536Q514 470 480 424T385 361L383 371Q454 356 492 310T530 193Q530 100 466 47T292 -7Z" />
<glyph unicode="4" horiz-adv-x="600" d="M371 0V596H397L112 186L113 227H569V152H47V221L387 712H463V0H371Z" />
<glyph unicode="5" horiz-adv-x="600" d="M309 -7Q243 -7 180 16T73 80L107 150Q156 110 206 90T309 69Q382 69 423 109T464 221Q464 266 446 300T394 353T315 373Q266 373 226 354T156 295H94V712H525V637H186V361L157 364Q186 405 231 427T332 449Q400 449 450
421T527 341T554 223Q554 155 524 103T439 22T309 -7Z" />
<glyph unicode="6" horiz-adv-x="600" d="M323 -8Q193 -8 122 81T51 339Q51 460 84 545T179 675T329 720Q391 720 449 698T553 633L520 563Q470 606 424 625T332 644Q242 644 193 565T144 340V262L131 288Q139 337 167 373T238 429T333 449Q399 449 448 421T526
341T554 223Q554 156 525 104T443 22T323 -8ZM319 68Q384 68 424 110T464 221Q464 289 424 331T318 373Q274 373 240 353T186 299T167 221Q167 175 186 141T239 88T319 68Z" />
<glyph unicode="7" horiz-adv-x="600" d="M206 0H107L455 670L461 635H62V712H538V643L206 0Z" />
<glyph unicode="8" horiz-adv-x="600" d="M300 -7Q222 -7 164 16T74 84T42 190Q42 264 92 312T226 373L222 358Q144 373 102 419T59 531Q59 589 90 631T175 697T300 720Q371 720 425 697T510 632T541 531Q541 465 499 419T379 358L374 373Q461 361 509 312T558
190Q558 128 526 84T436 17T300 -7ZM300 68Q380 68 423 100T467 196Q467 254 420 287T300 329Q227 321 180 288T133 196Q133 133 176 101T300 68ZM300 392Q367 400 408 433T450 523Q450 581 410 613T300 645Q230 645 190 613T150 523Q150 467 191 434T300 392Z"
/>
<glyph unicode="9" horiz-adv-x="600" d="M278 720Q408 720 479 631T550 373Q550 252 517 167T422 37T271 -8Q210 -8 151 14T47 79L81 149Q132 106 178 87T269 68Q359 68 407 147T456 372V450L470 425Q462 375 434 339T362 283T267 263Q202 263 153 291T75 371T47
489Q47 556 76 608T158 690T278 720ZM282 644Q216 644 177 602T137 491Q137 423 177 381T283 339Q327 339 361 359T415 413T434 491Q434 537 415 571T362 624T282 644Z" />
<glyph unicode=":" horiz-adv-x="235" d="M62 111H173V0H62V111ZM62 492H173V380H62V492Z" />
<glyph unicode=";" horiz-adv-x="235" d="M62 492H173V380H62V492ZM108 -119L67 -88Q95 -58 105 -33T115 19L141 0H62V111H173V34Q173 -9 159 -46T108 -119Z" />
<glyph unicode="&lt;" horiz-adv-x="600" d="M54 252V323L546 542V468L87 265V310L546 108V32L54 252Z" />
<glyph unicode="=" horiz-adv-x="600" d="M546 423V354H54V423H546ZM546 221V152H54V221H546Z" />
<glyph unicode="&gt;" horiz-adv-x="600" d="M546 252L54 32V108L513 310V265L54 468V542L546 323V252Z" />
<glyph unicode="?" horiz-adv-x="451" d="M88 683Q121 702 159 711T232 720Q291 720 335 700T404 645T429 560Q429 515 412 480T368 414T314 354T266 290T242 212L239 191H185V220Q185 271 200 308T237 376T282 433T320 490T335 554Q335 595 306 619T226 643Q194
643 158 633T88 600V683ZM157 0V111H268V0H157Z" />
<glyph unicode="@" horiz-adv-x="937" d="M479 -154Q346 -154 250 -100T101 50T49 275Q49 377 81 458T172 598T309 687T479 718Q581 718 658 687T786 603T863 483T889 347Q889 269 872 216T824 129T758 80T685 65Q630 65 599 88T565 154H563Q539 115 502 90T411
65Q344 65 303 111T261 242Q261 293 276 340T319 425T386 483T474 504Q521 504 556 482T601 424H603L614 492H686L639 224Q630 167 645 145T698 123Q715 123 736 134T776 171T808 240T820 347Q820 404 799 458T736 557T630 627T479 653Q403 653 338 627T223 552T147
434T120 275Q120 164 163 82T286 -45T479 -90Q564 -90 625 -66T717 0H812Q771 -70 685 -112T479 -154ZM426 123Q478 123 513 154T566 232T584 330Q584 387 557 415T484 444Q435 444 401 414T350 338T332 244Q332 185 360 154T426 123Z" />
<glyph unicode="A" horiz-adv-x="737" d="M109 0H14L329 712H408L724 0H630L354 643H385L109 0ZM149 179L182 255H554L587 179H149Z" />
<glyph unicode="B" horiz-adv-x="683" d="M86 0V712H378Q486 712 547 664T609 526Q609 464 576 422T483 361V369Q550 356 588 310T626 194Q626 101 564 51T387 0H86ZM177 75H379Q460 75 498 105T536 198Q536 261 498 292T379 323H177V75ZM177 400H363Q441 400
480 430T519 520Q519 578 481 607T363 637H177V400Z" />
<glyph unicode="C" horiz-adv-x="684" d="M394 -8Q291 -8 216 36T101 162T60 357Q60 470 100 551T216 676T394 720Q466 720 528 698T636 631L602 561Q552 604 503 622T395 641Q281 641 219 568T156 357Q156 219 218 145T395 71Q453 71 502 89T602 151L636 81Q591
37 529 15T394 -8Z" />
<glyph unicode="D" horiz-adv-x="749" d="M86 0V712H330Q444 712 524 671T647 550T690 357Q690 243 647 164T524 42T330 0H86ZM178 78H324Q459 78 526 148T594 357Q594 634 324 634H178V78Z" />
<glyph unicode="E" horiz-adv-x="590" d="M86 0V712H541V636H177V400H521V323H177V76H541V0H86Z" />
<glyph unicode="F" d="M86 0V712H531V635H177V400H511V323H177V0H86Z" />
<glyph unicode="G" horiz-adv-x="733" d="M405 -8Q297 -8 220 35T101 160T60 357Q60 471 101 552T218 677T399 720Q473 720 536 698T645 632L610 562Q559 604 510 623T400 642Q281 642 219 569T156 357Q156 215 220 142T408 68Q458 68 506 77T593 102L571 59V303H399V374H655V41Q626
26 586 15T498 -2T405 -8Z" />
<glyph unicode="H" horiz-adv-x="768" d="M590 0V712H682V0H590ZM86 0V712H177V0H86ZM125 323V400H642V323H125Z" />
<glyph unicode="I" horiz-adv-x="264" d="M86 0V712H178V0H86Z" />
<glyph unicode="J" horiz-adv-x="336" d="M-4 -178V-99Q58 -110 93 -105T143 -71T158 15V712H251V15Q251 -70 226 -117T146 -179T-4 -178Z" />
<glyph unicode="K" horiz-adv-x="641" d="M537 0L152 362L521 712H637L239 335L244 392L656 0H537ZM86 0V712H178V0H86Z" />
<glyph unicode="L" horiz-adv-x="548" d="M86 0V712H178V78H530V0H86Z" />
<glyph unicode="M" horiz-adv-x="849" d="M86 0V712H162L446 65H406L688 712H763V0H679V586L710 582L457 0H393L136 582L170 586L171 0H86Z" />
<glyph unicode="N" horiz-adv-x="748" d="M86 0V712H156L600 123L575 116V712H663V0H592L149 588L172 596V0H86Z" />
<glyph unicode="O" horiz-adv-x="775" d="M388 -8Q287 -8 214 36T100 162T60 356Q60 469 99 550T212 676T388 720Q489 720 562 676T675 551T715 357Q715 244 675 162T562 36T388 -8ZM388 69Q497 69 558 143T620 357Q620 496 559 569T388 643Q278 643 217 569T155
357Q155 219 216 144T388 69Z" />
<glyph unicode="P" horiz-adv-x="654" d="M86 0V712H375Q486 712 548 659T610 511Q610 419 548 365T375 310H178V0H86ZM178 385H366Q443 385 481 418T520 511Q520 572 482 604T366 637H178V385Z" />
<glyph unicode="Q" horiz-adv-x="775" d="M580 -191Q535 -158 493 -108T420 -4L508 27Q534 -24 569 -63T644 -135L580 -191ZM388 -8Q287 -8 214 36T100 162T60 356Q60 469 99 550T212 676T388 720Q489 720 562 676T675 551T715 357Q715 244 675 162T562 36T388
-8ZM388 69Q497 69 558 143T620 357Q620 496 559 569T388 643Q278 643 217 569T155 357Q155 219 216 144T388 69Z" />
<glyph unicode="R" horiz-adv-x="695" d="M86 0V712H373Q490 712 551 661T613 512Q613 420 550 367T374 314L449 328Q488 328 516 307T561 238L651 0H552L464 237Q448 280 420 294T344 308H177V0H86ZM177 383H364Q445 383 484 415T523 511Q523 575 485 606T364
637H177V383Z" />
<glyph unicode="S" horiz-adv-x="628" d="M315 -8Q260 -8 212 1T122 31T47 81L81 151Q134 107 189 88T316 69Q399 69 444 101T489 191Q489 226 467 247T406 282T315 308Q261 319 215 334T133 371T79 428T60 512Q60 573 92 620T184 693T323 720Q372 720 417 710T502
680T570 631L536 561Q487 603 435 623T323 643Q243 643 198 610T152 516Q152 479 172 456T229 419T317 393Q371 381 419 366T503 330T561 277T582 195Q582 133 550 88T458 17T315 -8Z" />
<glyph unicode="T" horiz-adv-x="606" d="M256 0V634H12V712H594V634H350V0H256Z" />
<glyph unicode="U" horiz-adv-x="733" d="M367 -8Q226 -8 154 65T81 281V712H172V274Q172 172 221 121T367 69Q462 69 511 121T560 274V712H652V281Q652 139 580 66T367 -8Z" />
<glyph unicode="V" horiz-adv-x="702" d="M312 0L0 712H97L370 77H335L608 712H704L391 0H312Z" />
<glyph unicode="W" horiz-adv-x="1114" d="M281 0L31 712H126L338 83H305L524 712L594 711L808 83H776L992 712H1082L833 0H755L546 599H568L358 0H281Z" />
<glyph unicode="X" horiz-adv-x="656" d="M114 0H4L275 365L329 433L532 712H641L381 364L328 294L114 0ZM543 0L328 294L275 365L16 712H126L329 433L381 364L652 0H543Z" />
<glyph unicode="Y" horiz-adv-x="612" d="M259 0V320L279 257L-23 712H85L321 345H291L528 712H634L333 257L352 320V0H259Z" />
<glyph unicode="Z" horiz-adv-x="599" d="M46 0V69L474 678L472 635H46V712H551V645L123 34L125 77H561V0H46Z" />
<glyph unicode="[" horiz-adv-x="325" d="M109 -182V712H316V641H200V-110H316V-182H109Z" />
<glyph unicode="\" horiz-adv-x="292" d="M233 -56L-23 750H58L315 -56H233Z" />
<glyph unicode="]" horiz-adv-x="325" d="M216 -182H9V-110H126V641H9V712H216V-182Z" />
<glyph unicode="^" horiz-adv-x="600" d="M336 635L555 142H480L278 601H322L120 142H45L264 635H336Z" />
<glyph unicode="_" horiz-adv-x="505" d="M9 -58V0H496V-58H9Z" />
<glyph unicode="`" horiz-adv-x="300" d="M120 557L-19 762H83L183 557H120Z" />
<glyph unicode="a" horiz-adv-x="604" d="M269 -7Q203 -7 153 24T74 114T46 252Q46 331 74 390T153 482T269 516Q337 516 385 483T450 387L438 380V503H528V0H438V126L450 121Q433 60 385 27T269 -7ZM289 67Q361 67 399 115T438 254Q438 344 399 392T289 441Q218
441 178 391T138 252Q138 163 178 115T289 67Z" />
<glyph unicode="b" horiz-adv-x="604" d="M76 0V736H167V376L155 388Q172 448 220 482T335 516Q402 516 452 484T530 394T559 256Q559 177 531 118T452 26T335 -7Q268 -7 220 26T155 121L166 133V0H76ZM316 67Q387 67 426 116T465 256Q465 344 426 392T316 441Q244
441 205 392T166 254Q166 164 205 116T316 67Z" />
<glyph unicode="c" horiz-adv-x="497" d="M291 -7Q215 -7 161 25T76 115T46 252Q46 330 76 390T163 483T295 516Q347 516 395 499T474 450L445 384Q409 412 374 426T300 441Q227 441 184 392T140 252Q140 163 183 115T301 67Q337 67 373 81T445 124L474 58Q442
28 393 11T291 -7Z" />
<glyph unicode="d" horiz-adv-x="604" d="M528 0H438V133L450 121Q433 60 385 27T269 -7Q204 -7 154 25T75 117T46 256Q46 335 74 393T152 484T269 516Q337 516 385 482T450 388L437 376V736H528V0ZM289 67Q360 67 399 115T438 254Q438 343 400 392T289 441Q218
441 178 393T138 256Q138 166 178 117T289 67Z" />
<glyph unicode="e" horiz-adv-x="545" d="M492 59Q459 28 407 11T301 -7Q222 -7 165 24T77 113T46 253Q46 331 76 390T161 482T285 516Q353 516 401 486T475 401T501 268V252H126V308H449L421 272Q423 357 388 402T286 447Q216 447 177 398T137 259Q137 163 179
115T303 66Q347 66 387 80T463 124L492 59Z" />
<glyph unicode="f" horiz-adv-x="344" d="M7 433V503H316V433H7ZM331 655Q302 663 279 663Q255 663 236 655T206 625T195 565V0H104V574Q104 657 145 698T260 740Q278 740 295 738T331 731V655Z" />
<glyph unicode="g" horiz-adv-x="608" d="M299 -223Q184 -223 99 -172L115 -99Q162 -126 204 -138T299 -150Q370 -150 406 -113T443 -1V133L454 143Q442 104 417 76T355 31T271 15Q205 15 154 46T75 134T46 265Q46 340 74 396T154 484T271 516Q340 516 388 482T454
388L442 396V503H533V7Q533 -108 474 -165T299 -223ZM291 90Q362 90 402 136T442 265Q442 347 402 394T291 441Q220 441 179 394T138 265Q138 182 179 136T291 90Z" />
<glyph unicode="h" horiz-adv-x="589" d="M76 0V736H167V401L153 394Q175 453 223 484T335 516Q516 516 516 315V0H425V310Q425 378 399 409T314 441Q247 441 207 400T167 288V0H76Z" />
<glyph unicode="i" horiz-adv-x="243" d="M76 0V503H167V0H76ZM324 720H431V621H324V720Z" />
<glyph unicode="j" horiz-adv-x="243" d="M-56 -135Q-41 -139 -30 -141T-7 -143Q15 -143 34 -135T65 -105T76 -45V503H167V-55Q167 -138 126 -179T12 -220Q-5 -220 -22 -218T-56 -211V-135ZM323 720H430V621H323V720Z" />
<glyph unicode="k" horiz-adv-x="523" d="M416 0L149 257L397 502H511L235 233L239 286L533 0H416ZM76 0V736H167V0H76Z" />
<glyph unicode="l" horiz-adv-x="243" d="M76 0V736H167V0H76Z" />
<glyph unicode="m" horiz-adv-x="884" d="M76 0V362Q76 397 75 432T68 503H154L163 400L153 395Q171 453 215 484T321 516Q394 516 434 480T486 370L462 385Q479 445 527 480T642 516Q726 516 768 466T810 315V0H719V311Q719 378 696 409T620 441Q559 441 524
400T489 286V0H398V311Q398 378 374 409T298 441Q236 441 202 400T167 286V0H76Z" />
<glyph unicode="n" horiz-adv-x="589" d="M76 0V362Q76 397 75 432T68 503H154L163 400L153 394Q175 453 223 484T335 516Q516 516 516 315V0H425V310Q425 378 399 409T314 441Q247 441 207 400T167 288V0H76Z" />
<glyph unicode="o" horiz-adv-x="577" d="M288 -7Q215 -7 161 25T76 115T46 254Q46 333 76 392T160 484T288 516Q362 516 416 484T500 393T530 254Q530 174 500 116T416 25T288 -7ZM288 67Q360 67 399 114T438 254Q438 345 399 393T288 441Q218 441 178 393T138
254Q138 162 177 115T288 67Z" />
<glyph unicode="p" horiz-adv-x="604" d="M76 -216V362Q76 397 75 432T68 503H154L163 400L155 387Q172 449 220 482T335 516Q401 516 451 483T530 390T559 252Q559 173 531 115T452 25T335 -7Q268 -7 220 26T155 121L167 132V-216H76ZM316 67Q387 67 426 115T465
252Q465 341 426 391T316 441Q244 441 205 393T166 254Q166 164 205 116T316 67Z" />
<glyph unicode="q" horiz-adv-x="604" d="M528 -216H437V132L450 121Q433 60 385 27T269 -7Q203 -7 153 24T74 114T46 252Q46 331 74 390T153 482T269 516Q337 516 385 483T450 387L440 400L451 503H536Q532 468 530 433T528 362V-216ZM289 67Q361 67 399 115T438
254Q438 344 399 392T289 441Q218 441 178 391T138 252Q138 163 178 115T289 67Z" />
<glyph unicode="r" horiz-adv-x="369" d="M76 0V362Q76 397 75 432T68 503H154L165 378L154 382Q167 448 213 481T318 515Q332 515 343 514T365 509L364 426Q339 435 308 435Q257 435 226 413T181 357T167 284V0H76Z" />
<glyph unicode="s" horiz-adv-x="497" d="M249 -7Q120 -7 44 58L73 124Q113 93 156 79T252 64Q306 64 334 82T363 136Q363 164 344 180T279 208L195 228Q130 242 96 278T61 365Q61 409 85 443T154 496T258 516Q311 516 358 499T439 450L410 385Q374 415 336 429T257
444Q206 444 178 424T149 370Q149 341 167 324T224 297L309 276Q381 261 415 227T449 138Q449 72 395 33T249 -7Z" />
<glyph unicode="t" horiz-adv-x="357" d="M7 433V503H337V433H7ZM335 79V3Q318 -2 301 -4T263 -7Q189 -7 147 35T104 159V631L195 663V169Q195 130 206 109T237 79T282 70Q296 70 308 72T335 79Z" />
<glyph unicode="u" horiz-adv-x="581" d="M255 -7Q164 -7 119 43T73 193V503H164V194Q164 129 190 99T272 68Q336 68 375 109T414 220V503H506V0H417V108L429 113Q409 54 362 24T255 -7Z" />
<glyph unicode="v" horiz-adv-x="534" d="M224 0L9 502H104L281 70H256L435 502H526L308 0H224Z" />
<glyph unicode="w" horiz-adv-x="872" d="M212 0L23 503H118L270 72H244L401 503H476L630 72H605L759 503H849L660 0H575L412 443H459L297 0H212Z" />
<glyph unicode="x" horiz-adv-x="538" d="M423 0L269 192L216 259L18 503H128L269 325L323 259L531 0H423ZM116 0H6L216 259L269 325L409 503H520L323 259L269 192L116 0Z" />
<glyph unicode="y" horiz-adv-x="534" d="M54 -227L35 -157Q81 -146 112 -132T165 -95T202 -35L235 40L256 70L435 503H526L291 -43Q264 -105 229 -142T151 -199T54 -227ZM236 -28L9 503H104L281 70L236 -28Z" />
<glyph unicode="z" horiz-adv-x="520" d="M50 0V63L385 466L398 433H60V503H467V439L132 37L122 71H478V0H50Z" />
<glyph unicode="{" horiz-adv-x="362" d="M294 -182Q222 -182 184 -146T146 -41V141Q146 186 131 207T78 237L48 245V286L78 294Q116 302 131 323T146 390V571Q146 640 186 676T294 712H353V641H305Q275 641 256 620T237 558V373Q237 336 223 312T187 276T144
264V268Q165 268 186 256T222 219T237 158V-28Q237 -69 256 -89T305 -110H353V-182H294Z" />
<glyph unicode="|" horiz-adv-x="268" d="M91 -182V712H177V-182H91Z" />
<glyph unicode="}" horiz-adv-x="363" d="M69 -182H9V-110H59Q88 -110 107 -90T126 -28V158Q126 194 140 218T176 255T219 268V264Q197 264 176 276T141 312T126 373V558Q126 599 107 620T59 641H9V712H69Q136 712 176 676T216 571V390Q216 345 231 324T286 294L315
286V245L286 237Q247 228 232 207T216 141V-41Q216 -109 178 -145T69 -182Z" />
<glyph unicode="~" horiz-adv-x="600" d="M492 346L546 316Q527 269 494 242T415 215Q382 215 351 227T292 254T239 282T191 295Q158 295 139 277T108 229L54 260Q72 306 105 332T185 359Q218 359 249 348T308 321T361 293T409 281Q442 281 461 299T492 346Z" />
<glyph unicode="&#xa0;" horiz-adv-x="264" />
<glyph unicode="&#xa1;" horiz-adv-x="235" d="M89 299H145L174 -182H61L89 299ZM62 380V492H173V380H62Z" />
<glyph unicode="&#xa2;" horiz-adv-x="600" d="M335 -7Q262 -7 207 25T121 115T90 252Q90 330 121 389T209 482T339 516Q391 516 439 499T518 450L489 384Q454 412 418 426T345 441Q270 441 227 391T184 252Q184 164 226 116T345 67Q382 67 418 81T489 124L518
58Q485 28 437 11T335 -7ZM299 -119V626H375V-119H299Z" />
<glyph unicode="&#xa3;" horiz-adv-x="600" d="M44 325V388H412V325H44ZM233 518V227Q233 178 223 146T189 93T124 57V77H564V0H44V64Q97 88 118 120T140 206V525Q140 585 165 629T235 696T342 720Q407 720 465 698T570 632L535 562Q491 602 443 623T347 644Q291
644 262 612T233 518Z" />
<glyph unicode="&#xa4;" horiz-adv-x="600" d="M300 -3Q233 -3 178 31T90 121T57 247Q57 317 89 373T177 464T300 498Q367 498 422 464T510 374T543 247Q543 178 510 122T422 31T300 -3ZM96 -6L52 38L141 131L184 83L96 -6ZM501 -6L414 83L458 129L545 38L501
-6ZM299 71Q345 71 382 95T442 159T464 247Q464 296 442 336T383 399T299 423Q254 423 217 400T157 336T134 247Q134 199 156 159T216 95T299 71ZM131 374L52 456L97 502L175 420L131 374ZM467 374L421 421L500 502L546 456L467 374Z" />
<glyph unicode="&#xa5;" horiz-adv-x="600" d="M254 0V382L274 313L-10 712H93L312 400H289L507 712H610L326 313L346 382V0H254ZM69 175V238H531V175H69ZM69 327V391H531V327H69Z" />
<glyph unicode="&#xa6;" horiz-adv-x="268" d="M91 375V712H177V375H91ZM91 -182V156H177V-182H91Z" />
<glyph unicode="&#xa7;" horiz-adv-x="548" d="M418 48L381 99Q400 115 411 139T423 189Q423 223 399 250T320 307L220 359Q170 384 140 411T95 469T81 540Q81 622 136 670T285 719Q335 719 382 703T463 656L434 591Q397 619 361 633T288 647Q232 647 201 621T170
545Q170 507 190 482T257 432L359 383Q439 343 474 301T509 200Q509 154 484 114T418 48ZM264 -189Q203 -189 153 -173T63 -124L92 -58Q135 -89 175 -102T262 -116Q317 -116 347 -90T378 -15Q378 24 359 49T291 99L189 148Q108 186 74 228T40 331Q40 376 62 415T121
478L163 428Q145 412 135 389T125 341Q125 308 148 281T228 223L328 173Q378 147 409 120T454 61T468 -10Q468 -93 414 -141T264 -189Z" />
<glyph unicode="&#xa8;" horiz-adv-x="300" d="M191 706H288V613H191V706ZM15 706H112V613H15V706Z" />
<glyph unicode="&#xa9;" horiz-adv-x="823" d="M412 -5Q335 -5 270 22T155 99T79 215T51 357Q51 434 78 499T155 613T269 689T412 717Q489 717 554 690T669 614T745 500T773 357Q773 281 746 215T669 100T555 23T412 -5ZM412 42Q479 42 535 66T634 132T699 232T722
357Q722 424 699 481T634 580T536 646T412 670Q345 670 288 646T189 580T124 481T101 357Q101 290 124 233T189 133T288 66T412 42ZM421 138Q325 138 270 197T214 357Q214 423 239 472T310 547T421 574Q464 574 504 560T573 520L547 460Q520 482 491 494T429 506Q367
506 334 468T300 357Q300 284 333 245T429 206Q461 206 490 218T547 252L573 192Q544 166 504 152T421 138Z" />
<glyph unicode="&#xaa;" horiz-adv-x="334" d="M132 410Q102 410 79 423T42 456T28 501Q28 548 66 568T201 588H228V548H208Q163 548 141 543T111 529T103 506Q103 489 116 477T151 465Q180 465 199 483T218 534V604Q218 633 205 645T163 657Q137 657 112 650T65
628L44 685Q68 699 101 708T169 717Q230 717 262 688T295 592V415H219V485L225 476Q215 445 190 428T132 410Z" />
<glyph unicode="&#xab;" horiz-adv-x="457" d="M158 88L25 267L160 448H242L113 268L239 88H158ZM347 88L214 267L349 448H431L302 268L428 88H347Z" />
<glyph unicode="&#xac;" horiz-adv-x="600" d="M546 426V149H479V358H54V426H546Z" />
<glyph unicode="&#xad;" horiz-adv-x="431" d="M72 232V306H359V232H72Z" />
<glyph unicode="&#xae;" horiz-adv-x="823" d="M412 -5Q335 -5 270 22T155 99T79 215T51 357Q51 434 78 499T155 613T269 689T412 717Q489 717 554 690T669 614T745 500T773 357Q773 281 746 215T669 100T555 23T412 -5ZM412 42Q479 42 535 66T634 132T699 232T722
357Q722 424 699 481T634 580T536 646T412 670Q345 670 288 646T189 580T124 481T101 357Q101 290 124 233T189 133T288 66T412 42ZM258 143V570H439Q511 570 550 536T589 442Q589 385 551 350T442 315L455 322Q483 322 504 310T540 271L616 143H523L445 280Q434
297 422 304T389 312H340V143H258ZM340 374H429Q470 374 489 389T508 438Q508 473 489 488T429 504H340V374Z" />
<glyph unicode="&#xaf;" horiz-adv-x="300" d="M-1 626V693H304V626H-1Z" />
<glyph unicode="&#xb0;" horiz-adv-x="369" d="M185 422Q143 422 109 441T56 494T36 570Q36 612 55 645T109 698T185 717Q226 717 259 698T312 646T332 570Q332 528 313 495T260 442T185 422ZM185 480Q222 480 247 505T272 570Q272 609 247 635T185 661Q146 661
122 635T98 570Q98 530 122 505T185 480Z" />
<glyph unicode="&#xb1;" horiz-adv-x="600" d="M546 365V297H54V365H546ZM266 534H334V127H266V534ZM546 69V0H54V69H546Z" />
<glyph unicode="&#xb2;" horiz-adv-x="380" d="M51 285V345L193 501Q217 527 230 550T243 595Q243 623 226 637T179 652Q152 652 121 640T61 607L36 667Q64 687 105 701T188 716Q252 716 288 684T325 600Q325 564 308 531T250 455L125 326L119 351H339V285H51Z" />
<glyph unicode="&#xb3;" horiz-adv-x="380" d="M184 281Q141 281 100 295T31 331L55 390Q84 369 115 357T179 345Q215 345 236 360T257 407Q257 440 236 454T176 469H117V533H165Q203 533 224 548T245 595Q245 623 228 637T180 652Q151 652 120 640T61 607L36
667Q64 687 105 701T185 716Q253 716 288 683T324 602Q324 564 303 538T248 502V507Q287 498 310 472T334 402Q334 366 316 339T265 296T184 281Z" />
<glyph unicode="&#xb4;" horiz-adv-x="300" d="M183 557H120L220 762H322L183 557Z" />
<glyph unicode="&#xb5;" horiz-adv-x="581" d="M506 503V0H417V108L429 113Q409 54 362 24T255 -7Q216 -7 189 3T140 36L164 67V-216H73V503H164V194Q164 129 190 99T272 68Q336 68 375 109T414 220V503H506Z" />
<glyph unicode="&#xb6;" horiz-adv-x="595" d="M509 712V-182H437V647H319V-182H246V307Q185 307 140 332T69 404T44 510Q44 569 69 614T140 686T249 712H509Z" />
<glyph unicode="&#xb7;" horiz-adv-x="235" d="M62 324H173V213H62V324Z" />
<glyph unicode="&#xb8;" horiz-adv-x="300" d="M151 -195Q131 -195 106 -191T61 -177L74 -131Q95 -139 113 -142T150 -145Q177 -145 191 -136T205 -111Q205 -85 170 -85Q158 -85 147 -87T126 -93L106 -77L117 20H177L169 -53L142 -51Q155 -46 168 -44T193 -41Q223
-41 246 -58T270 -111Q270 -147 239 -171T151 -195Z" />
<glyph unicode="&#xb9;" horiz-adv-x="380" d="M176 323V648L211 643L104 578V658L196 712H256V323H176ZM99 285V351H333V285H99Z" />
<glyph unicode="&#xba;" horiz-adv-x="350" d="M174 410Q126 410 92 430T39 485T21 565Q21 609 39 643T91 697T174 717Q224 717 258 697T310 643T328 565Q328 520 310 485T258 430T174 410ZM174 474Q211 474 230 497T249 565Q249 608 230 631T174 654Q138 654
120 631T101 565Q101 521 119 498T174 474Z" />
<glyph unicode="&#xbb;" horiz-adv-x="457" d="M110 88H29L157 268L26 448H110L243 267L110 88ZM299 88H218L346 268L215 448H299L432 267L299 88Z" />
<glyph unicode="&#xbc;" horiz-adv-x="939" d="M176 323V648L211 643L104 578V658L196 712H256V323H176ZM99 285V351H333V285H99ZM292 -26L227 11L648 738L712 701L292 -26ZM781 0V335L799 337L644 118L643 143H920V81H588V139L792 427H858V0H781Z" />
<glyph unicode="&#xbd;" horiz-adv-x="939" d="M176 323V648L211 643L104 578V658L196 712H256V323H176ZM99 285V351H333V285H99ZM292 -26L227 11L648 738L712 701L292 -26ZM610 0V60L752 216Q776 242 789 265T802 310Q802 338 785 352T738 367Q711 367 680 355T620
322L595 382Q623 402 664 416T747 431Q811 431 847 399T884 315Q884 279 867 246T809 170L684 41L678 66H898V0H610Z" />
<glyph unicode="&#xbe;" horiz-adv-x="939" d="M184 281Q141 281 100 295T31 331L55 390Q84 369 115 357T179 345Q215 345 236 360T257 407Q257 440 236 454T176 469H117V533H165Q203 533 224 548T245 595Q245 623 228 637T180 652Q151 652 120 640T61 607L36
667Q64 687 105 701T185 716Q253 716 288 683T324 602Q324 564 303 538T248 502V507Q287 498 310 472T334 402Q334 366 316 339T265 296T184 281ZM292 -26L227 11L648 738L712 701L292 -26ZM781 0V335L799 337L644 118L643 143H920V81H588V139L792 427H858V0H781Z"
/>
<glyph unicode="&#xbf;" horiz-adv-x="451" d="M219 -189Q163 -189 119 -170T48 -116T22 -31Q22 13 39 44T83 101T137 151T185 207T209 281L212 301H267V272Q267 223 252 189T214 130T169 82T131 35T116 -25Q116 -64 144 -88T223 -112Q258 -112 293 -102T362 -70V-152Q329
-172 292 -180T219 -189ZM182 380V492H294V380H182Z" />
<glyph unicode="&#xc0;" horiz-adv-x="737" d="M109 0H14L329 712H408L724 0H630L354 643H385L109 0ZM149 179L182 255H554L587 179H149ZM337 773L201 926H297L400 773H337Z" />
<glyph unicode="&#xc1;" horiz-adv-x="737" d="M109 0H14L329 712H408L724 0H630L354 643H385L109 0ZM149 179L182 255H554L587 179H149ZM400 773H337L440 926H536L400 773Z" />
<glyph unicode="&#xc2;" horiz-adv-x="737" d="M109 0H14L329 712H408L724 0H630L354 643H385L109 0ZM149 179L182 255H554L587 179H149ZM297 773H217L339 926H398L520 773H440L369 874L297 773Z" />
<glyph unicode="&#xc3;" horiz-adv-x="737" d="M109 0H14L329 712H408L724 0H630L354 643H385L109 0ZM149 179L182 255H554L587 179H149ZM204 792Q204 851 230 881T297 912Q325 912 350 898T397 870T439 855Q461 855 473 871T485 909H533Q533 851 507 820T440
789Q412 789 387 803T340 832T298 846Q276 846 264 830T252 792H204Z" />
<glyph unicode="&#xc4;" horiz-adv-x="737" d="M109 0H14L329 712H408L724 0H630L354 643H385L109 0ZM149 179L182 255H554L587 179H149ZM408 896H505V804H408V896ZM232 896H329V804H232V896Z" />
<glyph unicode="&#xc5;" horiz-adv-x="737" d="M370 681Q326 681 296 709T266 782Q266 824 296 853T370 883Q412 883 442 854T473 782Q473 738 443 710T370 681ZM370 731Q390 731 403 745T417 782Q417 802 404 816T370 831Q348 831 335 817T321 782Q321 760 334
746T370 731ZM109 0H14L329 712H408L724 0H630L354 643H385L109 0ZM149 179L182 255H554L587 179H149Z" />
<glyph unicode="&#xc6;" horiz-adv-x="1002" d="M-6 0L429 712H954V636H452L480 649L95 0H-6ZM143 179L176 255H562L581 179H143ZM558 0L501 670H584L636 76H954V0H558ZM567 323V400H934V323H567Z" />
<glyph unicode="&#xc7;" horiz-adv-x="684" d="M394 -8Q291 -8 216 36T101 162T60 357Q60 470 100 551T216 676T394 720Q466 720 528 698T636 631L602 561Q552 604 503 622T395 641Q281 641 219 568T156 357Q156 219 218 145T395 71Q453 71 502 89T602 151L636
81Q591 37 529 15T394 -8ZM387 -195Q367 -195 342 -191T297 -177L310 -131Q331 -139 349 -142T386 -145Q413 -145 427 -136T441 -111Q441 -85 406 -85Q394 -85 383 -87T362 -93L342 -77L353 20H413L405 -53L378 -51Q391 -46 404 -44T429 -41Q459 -41 482 -58T506
-111Q506 -147 475 -171T387 -195Z" />
<glyph unicode="&#xc8;" horiz-adv-x="590" d="M86 0V712H541V636H177V400H521V323H177V76H541V0H86ZM296 773L160 926H256L359 773H296Z" />
<glyph unicode="&#xc9;" horiz-adv-x="590" d="M86 0V712H541V636H177V400H521V323H177V76H541V0H86ZM359 773H296L399 926H495L359 773Z" />
<glyph unicode="&#xca;" horiz-adv-x="590" d="M86 0V712H541V636H177V400H521V323H177V76H541V0H86ZM256 773H176L298 926H357L479 773H399L328 874L256 773Z" />
<glyph unicode="&#xcb;" horiz-adv-x="590" d="M86 0V712H541V636H177V400H521V323H177V76H541V0H86ZM367 896H464V804H367V896ZM191 896H288V804H191V896Z" />
<glyph unicode="&#xcc;" horiz-adv-x="264" d="M86 0V712H178V0H86ZM356 773L220 926H316L419 773H356Z" />
<glyph unicode="&#xcd;" horiz-adv-x="264" d="M86 0V712H178V0H86ZM419 773H356L459 926H555L419 773Z" />
<glyph unicode="&#xce;" horiz-adv-x="264" d="M86 0V712H178V0H86ZM316 773H236L358 926H417L539 773H459L388 874L316 773Z" />
<glyph unicode="&#xcf;" horiz-adv-x="264" d="M86 0V712H178V0H86ZM427 896H524V804H427V896ZM251 896H348V804H251V896Z" />
<glyph unicode="&#xd0;" horiz-adv-x="766" d="M9 324V397H387V324H9ZM101 0V712H345Q460 712 540 671T663 550T705 357Q705 243 663 164T541 42T345 0H101ZM194 78H340Q475 78 542 148T610 357Q610 634 340 634H194V78Z" />
<glyph unicode="&#xd1;" horiz-adv-x="748" d="M86 0V712H156L600 123L575 116V712H663V0H592L149 588L172 596V0H86ZM209 792Q209 851 235 881T302 912Q330 912 355 898T402 870T444 855Q466 855 478 871T490 909H538Q538 851 512 820T445 789Q417 789 392 803T345
832T303 846Q281 846 269 830T257 792H209Z" />
<glyph unicode="&#xd2;" horiz-adv-x="775" d="M388 -8Q287 -8 214 36T100 162T60 356Q60 469 99 550T212 676T388 720Q489 720 562 676T675 551T715 357Q715 244 675 162T562 36T388 -8ZM388 69Q497 69 558 143T620 357Q620 496 559 569T388 643Q278 643 217
569T155 357Q155 219 216 144T388 69ZM355 773L219 926H315L418 773H355Z" />
<glyph unicode="&#xd3;" horiz-adv-x="775" d="M388 -8Q287 -8 214 36T100 162T60 356Q60 469 99 550T212 676T388 720Q489 720 562 676T675 551T715 357Q715 244 675 162T562 36T388 -8ZM388 69Q497 69 558 143T620 357Q620 496 559 569T388 643Q278 643 217
569T155 357Q155 219 216 144T388 69ZM418 773H355L458 926H554L418 773Z" />
<glyph unicode="&#xd4;" horiz-adv-x="775" d="M388 -8Q287 -8 214 36T100 162T60 356Q60 469 99 550T212 676T388 720Q489 720 562 676T675 551T715 357Q715 244 675 162T562 36T388 -8ZM388 69Q497 69 558 143T620 357Q620 496 559 569T388 643Q278 643 217
569T155 357Q155 219 216 144T388 69ZM315 773H235L357 926H416L538 773H458L387 874L315 773Z" />
<glyph unicode="&#xd5;" horiz-adv-x="775" d="M388 -8Q287 -8 214 36T100 162T60 356Q60 469 99 550T212 676T388 720Q489 720 562 676T675 551T715 357Q715 244 675 162T562 36T388 -8ZM388 69Q497 69 558 143T620 357Q620 496 559 569T388 643Q278 643 217
569T155 357Q155 219 216 144T388 69ZM222 792Q222 851 248 881T315 912Q343 912 368 898T415 870T457 855Q479 855 491 871T503 909H551Q551 851 525 820T458 789Q430 789 405 803T358 832T316 846Q294 846 282 830T270 792H222Z" />
<glyph unicode="&#xd6;" horiz-adv-x="775" d="M388 -8Q287 -8 214 36T100 162T60 356Q60 469 99 550T212 676T388 720Q489 720 562 676T675 551T715 357Q715 244 675 162T562 36T388 -8ZM388 69Q497 69 558 143T620 357Q620 496 559 569T388 643Q278 643 217
569T155 357Q155 219 216 144T388 69ZM426 896H523V804H426V896ZM250 896H347V804H250V896Z" />
<glyph unicode="&#xd7;" horiz-adv-x="600" d="M488 524L536 476L112 52L64 99L488 524ZM112 524L536 99L488 52L64 476L112 524Z" />
<glyph unicode="&#xd8;" horiz-adv-x="775" d="M388 -8Q287 -8 214 36T100 162T60 356Q60 469 99 550T212 676T388 720Q489 720 562 676T675 551T715 357Q715 244 675 162T562 36T388 -8ZM193 -50L130 -13L582 762L644 725L193 -50ZM388 69Q497 69 558 143T620
357Q620 496 559 569T388 643Q278 643 217 569T155 357Q155 219 216 144T388 69Z" />
<glyph unicode="&#xd9;" horiz-adv-x="733" d="M367 -8Q226 -8 154 65T81 281V712H172V274Q172 172 221 121T367 69Q462 69 511 121T560 274V712H652V281Q652 139 580 66T367 -8ZM335 773L199 926H295L398 773H335Z" />
<glyph unicode="&#xda;" horiz-adv-x="733" d="M367 -8Q226 -8 154 65T81 281V712H172V274Q172 172 221 121T367 69Q462 69 511 121T560 274V712H652V281Q652 139 580 66T367 -8ZM398 773H335L438 926H534L398 773Z" />
<glyph unicode="&#xdb;" horiz-adv-x="733" d="M367 -8Q226 -8 154 65T81 281V712H172V274Q172 172 221 121T367 69Q462 69 511 121T560 274V712H652V281Q652 139 580 66T367 -8ZM295 773H215L337 926H396L518 773H438L367 874L295 773Z" />
<glyph unicode="&#xdc;" horiz-adv-x="733" d="M367 -8Q226 -8 154 65T81 281V712H172V274Q172 172 221 121T367 69Q462 69 511 121T560 274V712H652V281Q652 139 580 66T367 -8ZM406 896H503V804H406V896ZM230 896H327V804H230V896Z" />
<glyph unicode="&#xdd;" horiz-adv-x="612" d="M259 0V320L279 257L-23 712H85L321 345H291L528 712H634L333 257L352 320V0H259ZM336 773H273L376 926H472L336 773Z" />
<glyph unicode="&#xde;" horiz-adv-x="654" d="M163 167V242H369Q447 242 483 271T520 363Q520 424 484 453T369 482H163V557H380Q490 557 550 507T610 363Q610 270 550 219T380 167H163ZM86 0V712H177V0H86Z" />
<glyph unicode="&#xdf;" horiz-adv-x="643" d="M76 0V489Q76 613 140 677T323 741Q417 741 470 697T524 573Q524 529 509 491T454 421T345 363V379Q440 359 499 327T585 253T612 157Q612 107 589 70T522 13T420 -7Q364 -7 314 10T231 58L260 126Q301 94 340 80T422
65Q474 65 500 90T526 160Q526 194 503 224T426 280T278 331V399Q340 423 375 449T424 505T438 572Q438 620 409 645T323 670Q248 670 208 628T167 500V0H76Z" />
<glyph unicode="&#xe0;" horiz-adv-x="604" d="M269 -7Q203 -7 153 24T74 114T46 252Q46 331 74 390T153 482T269 516Q337 516 385 483T450 387L438 380V503H528V0H438V126L450 121Q433 60 385 27T269 -7ZM289 67Q361 67 399 115T438 254Q438 344 399 392T289
441Q218 441 178 391T138 252Q138 163 178 115T289 67ZM271 568L132 773H234L334 568H271Z" />
<glyph unicode="&#xe1;" horiz-adv-x="604" d="M269 -7Q203 -7 153 24T74 114T46 252Q46 331 74 390T153 482T269 516Q337 516 385 483T450 387L438 380V503H528V0H438V126L450 121Q433 60 385 27T269 -7ZM289 67Q361 67 399 115T438 254Q438 344 399 392T289
441Q218 441 178 391T138 252Q138 163 178 115T289 67ZM334 568H271L371 773H473L334 568Z" />
<glyph unicode="&#xe2;" horiz-adv-x="604" d="M269 -7Q203 -7 153 24T74 114T46 252Q46 331 74 390T153 482T269 516Q337 516 385 483T450 387L438 380V503H528V0H438V126L450 121Q433 60 385 27T269 -7ZM289 67Q361 67 399 115T438 254Q438 344 399 392T289
441Q218 441 178 391T138 252Q138 163 178 115T289 67ZM232 568H151L272 773H333L454 568H373L303 709L232 568Z" />
<glyph unicode="&#xe3;" horiz-adv-x="604" d="M269 -7Q203 -7 153 24T74 114T46 252Q46 331 74 390T153 482T269 516Q337 516 385 483T450 387L438 380V503H528V0H438V126L450 121Q433 60 385 27T269 -7ZM289 67Q361 67 399 115T438 254Q438 344 399 392T289
441Q218 441 178 391T138 252Q138 163 178 115T289 67ZM138 613Q138 671 164 702T231 733Q259 733 284 719T331 690T373 676Q395 676 407 692T419 730H467Q467 672 441 641T374 610Q346 610 321 624T274 653T232 668Q210 668 198 652T186 613H138Z" />
<glyph unicode="&#xe4;" horiz-adv-x="604" d="M269 -7Q203 -7 153 24T74 114T46 252Q46 331 74 390T153 482T269 516Q337 516 385 483T450 387L438 380V503H528V0H438V126L450 121Q433 60 385 27T269 -7ZM289 67Q361 67 399 115T438 254Q438 344 399 392T289
441Q218 441 178 391T138 252Q138 163 178 115T289 67ZM342 717H439V624H342V717ZM166 717H263V624H166V717Z" />
<glyph unicode="&#xe5;" horiz-adv-x="604" d="M269 -7Q203 -7 153 24T74 114T46 252Q46 331 74 390T153 482T269 516Q337 516 385 483T450 387L438 380V503H528V0H438V126L450 121Q433 60 385 27T269 -7ZM289 67Q361 67 399 115T438 254Q438 344 399 392T289
441Q218 441 178 391T138 252Q138 163 178 115T289 67ZM303 570Q259 570 230 598T200 671Q200 713 229 742T303 772Q331 772 354 759T391 722T405 671Q405 627 376 599T303 570ZM303 620Q324 620 337 634T350 671Q350 692 337 706T303 720Q281 720 268 706T255
671Q255 649 268 635T303 620Z" />
<glyph unicode="&#xe6;" horiz-adv-x="879" d="M639 -7Q529 -7 466 60T400 251Q399 330 427 389T507 482T626 516Q691 516 738 486T810 399T835 267V252H461V308H782L755 272Q757 357 723 402T625 447Q556 447 517 397T478 253Q478 164 519 115T642 66Q682 66
721 81T798 124L826 59Q793 29 742 11T639 -7ZM246 -7Q193 -7 151 13T84 68T58 151Q58 207 86 241T178 292T349 308H399V253H354Q276 253 232 243T169 212T150 156Q150 113 179 88T255 63Q296 63 326 82T372 135T389 213V323Q389 386 365 414T283 442Q238 442 195
429T108 388L79 453Q105 472 139 486T211 508T283 516Q379 516 425 467T472 320V187L441 185Q435 95 383 44T246 -7Z" />
<glyph unicode="&#xe7;" horiz-adv-x="497" d="M291 -7Q215 -7 161 25T76 115T46 252Q46 330 76 390T163 483T295 516Q347 516 395 499T474 450L445 384Q409 412 374 426T300 441Q227 441 184 392T140 252Q140 163 183 115T301 67Q337 67 373 81T445 124L474 58Q442
28 393 11T291 -7ZM283 -195Q263 -195 238 -191T193 -177L206 -131Q227 -139 245 -142T282 -145Q309 -145 323 -136T337 -111Q337 -85 302 -85Q290 -85 279 -87T258 -93L238 -77L249 20H309L301 -53L274 -51Q287 -46 300 -44T325 -41Q355 -41 378 -58T402 -111Q402
-147 371 -171T283 -195Z" />
<glyph unicode="&#xe8;" horiz-adv-x="545" d="M492 59Q459 28 407 11T301 -7Q222 -7 165 24T77 113T46 253Q46 331 76 390T161 482T285 516Q353 516 401 486T475 401T501 268V252H126V308H449L421 272Q423 357 388 402T286 447Q216 447 177 398T137 259Q137 163
179 115T303 66Q347 66 387 80T463 124L492 59ZM253 568L114 773H216L316 568H253Z" />
<glyph unicode="&#xe9;" horiz-adv-x="545" d="M492 59Q459 28 407 11T301 -7Q222 -7 165 24T77 113T46 253Q46 331 76 390T161 482T285 516Q353 516 401 486T475 401T501 268V252H126V308H449L421 272Q423 357 388 402T286 447Q216 447 177 398T137 259Q137 163
179 115T303 66Q347 66 387 80T463 124L492 59ZM316 568H253L353 773H455L316 568Z" />
<glyph unicode="&#xea;" horiz-adv-x="545" d="M492 59Q459 28 407 11T301 -7Q222 -7 165 24T77 113T46 253Q46 331 76 390T161 482T285 516Q353 516 401 486T475 401T501 268V252H126V308H449L421 272Q423 357 388 402T286 447Q216 447 177 398T137 259Q137 163
179 115T303 66Q347 66 387 80T463 124L492 59ZM214 568H133L254 773H315L436 568H355L285 709L214 568Z" />
<glyph unicode="&#xeb;" horiz-adv-x="545" d="M492 59Q459 28 407 11T301 -7Q222 -7 165 24T77 113T46 253Q46 331 76 390T161 482T285 516Q353 516 401 486T475 401T501 268V252H126V308H449L421 272Q423 357 388 402T286 447Q216 447 177 398T137 259Q137 163
179 115T303 66Q347 66 387 80T463 124L492 59ZM324 717H421V624H324V717ZM148 717H245V624H148V717Z" />
<glyph unicode="&#xec;" horiz-adv-x="243" d="M76 0V503H167V0H76ZM346 568L207 773H309L409 568H346Z" />
<glyph unicode="&#xed;" horiz-adv-x="243" d="M76 0V503H167V0H76ZM409 568H346L446 773H548L409 568Z" />
<glyph unicode="&#xee;" horiz-adv-x="243" d="M76 0V503H167V0H76ZM307 568H226L347 773H408L529 568H448L378 709L307 568Z" />
<glyph unicode="&#xef;" horiz-adv-x="243" d="M76 0V503H167V0H76ZM417 717H514V624H417V717ZM241 717H338V624H241V717Z" />
<glyph unicode="&#xf0;" horiz-adv-x="581" d="M286 -7Q214 -7 160 22T76 105T46 231Q46 303 75 357T158 440T281 470Q362 470 412 430T480 310L449 312Q450 409 415 483T315 606T161 678L183 744Q270 724 335 683T445 583T512 453T535 298Q535 149 471 71T286
-7ZM288 67Q358 67 398 110T438 231Q438 310 399 353T288 397Q218 397 178 354T138 231Q138 152 177 110T288 67ZM183 518L165 573L515 694L531 639L183 518Z" />
<glyph unicode="&#xf1;" horiz-adv-x="589" d="M76 0V362Q76 397 75 432T68 503H154L163 400L153 394Q175 453 223 484T335 516Q516 516 516 315V0H425V310Q425 378 399 409T314 441Q247 441 207 400T167 288V0H76ZM131 613Q131 671 157 702T224 733Q252 733 277
719T324 690T366 676Q388 676 400 692T412 730H460Q460 672 434 641T367 610Q339 610 314 624T267 653T225 668Q203 668 191 652T179 613H131Z" />
<glyph unicode="&#xf2;" horiz-adv-x="577" d="M288 -7Q215 -7 161 25T76 115T46 254Q46 333 76 392T160 484T288 516Q362 516 416 484T500 393T530 254Q530 174 500 116T416 25T288 -7ZM288 67Q360 67 399 114T438 254Q438 345 399 393T288 441Q218 441 178 393T138
254Q138 162 177 115T288 67ZM256 568L117 773H219L319 568H256Z" />
<glyph unicode="&#xf3;" horiz-adv-x="577" d="M288 -7Q215 -7 161 25T76 115T46 254Q46 333 76 392T160 484T288 516Q362 516 416 484T500 393T530 254Q530 174 500 116T416 25T288 -7ZM288 67Q360 67 399 114T438 254Q438 345 399 393T288 441Q218 441 178 393T138
254Q138 162 177 115T288 67ZM319 568H256L356 773H458L319 568Z" />
<glyph unicode="&#xf4;" horiz-adv-x="577" d="M288 -7Q215 -7 161 25T76 115T46 254Q46 333 76 392T160 484T288 516Q362 516 416 484T500 393T530 254Q530 174 500 116T416 25T288 -7ZM288 67Q360 67 399 114T438 254Q438 345 399 393T288 441Q218 441 178 393T138
254Q138 162 177 115T288 67ZM217 568H136L257 773H318L439 568H358L288 709L217 568Z" />
<glyph unicode="&#xf5;" horiz-adv-x="577" d="M288 -7Q215 -7 161 25T76 115T46 254Q46 333 76 392T160 484T288 516Q362 516 416 484T500 393T530 254Q530 174 500 116T416 25T288 -7ZM288 67Q360 67 399 114T438 254Q438 345 399 393T288 441Q218 441 178 393T138
254Q138 162 177 115T288 67ZM123 613Q123 671 149 702T216 733Q244 733 269 719T316 690T358 676Q380 676 392 692T404 730H452Q452 672 426 641T359 610Q331 610 306 624T259 653T217 668Q195 668 183 652T171 613H123Z" />
<glyph unicode="&#xf6;" horiz-adv-x="577" d="M288 -7Q215 -7 161 25T76 115T46 254Q46 333 76 392T160 484T288 516Q362 516 416 484T500 393T530 254Q530 174 500 116T416 25T288 -7ZM288 67Q360 67 399 114T438 254Q438 345 399 393T288 441Q218 441 178 393T138
254Q138 162 177 115T288 67ZM327 717H424V624H327V717ZM151 717H248V624H151V717Z" />
<glyph unicode="&#xf7;" horiz-adv-x="600" d="M245 437V536H343V437H245ZM245 37V137H343V37H245ZM546 322V253H54V322H546Z" />
<glyph unicode="&#xf8;" horiz-adv-x="577" d="M288 -7Q215 -7 161 25T76 115T46 254Q46 333 76 392T160 484T288 516Q362 516 416 484T500 393T530 254Q530 174 500 116T416 25T288 -7ZM147 -49L95 -18L429 556L482 527L147 -49ZM288 67Q361 67 400 114T439 254Q439
345 400 393T288 442Q217 442 178 394T138 254Q138 162 176 115T288 67Z" />
<glyph unicode="&#xf9;" horiz-adv-x="581" d="M255 -7Q164 -7 119 43T73 193V503H164V194Q164 129 190 99T272 68Q336 68 375 109T414 220V503H506V0H417V108L429 113Q409 54 362 24T255 -7ZM259 568L120 773H222L322 568H259Z" />
<glyph unicode="&#xfa;" horiz-adv-x="581" d="M255 -7Q164 -7 119 43T73 193V503H164V194Q164 129 190 99T272 68Q336 68 375 109T414 220V503H506V0H417V108L429 113Q409 54 362 24T255 -7ZM322 568H259L359 773H461L322 568Z" />
<glyph unicode="&#xfb;" horiz-adv-x="581" d="M255 -7Q164 -7 119 43T73 193V503H164V194Q164 129 190 99T272 68Q336 68 375 109T414 220V503H506V0H417V108L429 113Q409 54 362 24T255 -7ZM220 568H139L260 773H321L442 568H361L291 709L220 568Z" />
<glyph unicode="&#xfc;" horiz-adv-x="581" d="M255 -7Q164 -7 119 43T73 193V503H164V194Q164 129 190 99T272 68Q336 68 375 109T414 220V503H506V0H417V108L429 113Q409 54 362 24T255 -7ZM330 717H427V624H330V717ZM154 717H251V624H154V717Z" />
<glyph unicode="&#xfd;" horiz-adv-x="534" d="M54 -227L35 -157Q81 -146 112 -132T165 -95T202 -35L235 40L256 70L435 503H526L291 -43Q264 -105 229 -142T151 -199T54 -227ZM236 -28L9 503H104L281 70L236 -28ZM298 568H235L335 773H437L298 568Z" />
<glyph unicode="&#xfe;" horiz-adv-x="604" d="M76 -216V736H167V376L155 387Q172 449 220 482T335 516Q400 516 450 484T530 392T559 252Q559 170 530 112T451 24T335 -7Q268 -7 220 26T155 121L167 132V-216H76ZM316 67Q388 67 426 115T465 252Q465 340 427
390T316 441Q244 441 205 393T166 254Q166 164 205 116T316 67Z" />
<glyph unicode="&#xff;" horiz-adv-x="534" d="M54 -227L35 -157Q81 -146 112 -132T165 -95T202 -35L235 40L256 70L435 503H526L291 -43Q264 -105 229 -142T151 -199T54 -227ZM236 -28L9 503H104L281 70L236 -28ZM306 717H403V624H306V717ZM130 717H227V624H130V717Z" />
<glyph unicode="&#x2013;" horiz-adv-x="505" d="M0 240V298H505V240H0Z" />
<glyph unicode="&#x2014;" horiz-adv-x="1010" d="M0 240V298H1010V240H0Z" />
<glyph unicode="&#x2018;" horiz-adv-x="235" d="M127 718L168 686Q140 657 130 632T120 579L95 599H173V487H62V564Q62 608 76 645T127 718Z" />
<glyph unicode="&#x2019;" horiz-adv-x="235" d="M108 481L67 513Q95 543 105 568T115 620L141 601H62V712H173V635Q173 591 159 555T108 481Z" />
<glyph unicode="&#x201a;" horiz-adv-x="235" d="M108 -119L67 -88Q95 -58 105 -33T115 19L141 0H62V111H173V34Q173 -9 159 -46T108 -119Z" />
<glyph unicode="&#x201c;" horiz-adv-x="409" d="M127 718L168 686Q140 657 130 632T120 579L95 599H173V487H62V564Q62 608 76 645T127 718ZM301 718L342 686Q314 657 304 632T294 579L269 599H347V487H236V564Q236 608 250 645T301 718Z" />
<glyph unicode="&#x201d;" horiz-adv-x="409" d="M108 481L67 513Q95 543 105 568T115 620L141 601H62V712H173V635Q173 591 159 555T108 481ZM282 481L241 513Q269 543 279 568T289 620L315 601H236V712H347V635Q347 591 333 555T282 481Z" />
<glyph unicode="&#x201e;" horiz-adv-x="409" d="M108 -119L67 -88Q95 -58 105 -33T115 19L141 0H62V111H173V34Q173 -9 159 -46T108 -119ZM282 -119L241 -88Q269 -58 279 -33T289 19L315 0H236V111H347V34Q347 -9 333 -46T282 -119Z" />
<glyph unicode="&#x2022;" horiz-adv-x="529" d="M265 89Q216 89 174 112T107 177T82 268Q82 314 105 355T170 421T265 447Q314 447 355 424T421 360T447 268Q447 219 423 178T357 113T265 89Z" />
<glyph unicode="&#x2039;" horiz-adv-x="268" d="M158 88L25 267L160 448H242L113 268L239 88H158Z" />
<glyph unicode="&#x203a;" horiz-adv-x="268" d="M110 88H29L157 268L26 448H110L243 267L110 88Z" />
</font>
</defs>
</svg>
