<?xml version="1.0" standalone="no"?>
<!DOCTYPE svg PUBLIC "-//W3C//DTD SVG 1.1//EN" "http://www.w3.org/Graphics/SVG/1.1/DTD/svg11.dtd">
<svg xmlns="http://www.w3.org/2000/svg">
<defs >
<font id="Muli" horiz-adv-x="565" ><font-face
    font-family="Muli ExtraBold"
    units-per-em="1000"
    panose-1="0 0 0 0 0 0 0 0 0 0"
    ascent="1005"
    descent="-250"
    alphabetic="0" />
<glyph unicode=" " horiz-adv-x="281" />
<glyph unicode="!" horiz-adv-x="263" d="M85 229L38 713L224 712L177 229H85ZM49 161H213V0H49V161Z" />
<glyph unicode="&quot;" horiz-adv-x="473" d="M79 411L41 712H215L180 411H79ZM295 411L257 712H431L396 411H295Z" />
<glyph unicode="#" horiz-adv-x="606" d="M287 0L428 712H529L388 0H287ZM50 167V261H534V167H50ZM77 0L218 712H319L178 0H77ZM72 459V553H557V459H72Z" />
<glyph unicode="$" horiz-adv-x="600" d="M300 -9Q218 -9 148 12T28 71L79 183Q128 147 181 130T295 112Q357 112 389 134T422 200Q422 228 401 244T346 271T271 292T189 315T113 351T58 410T37 502Q37 565 73 614T171 692T312 721Q359 721 406 711T493 683T562
641L511 529Q414 600 313 600Q258 600 225 577T192 512Q192 481 213 464T268 435T344 414T426 391T501 356T557 298T578 207Q578 143 543 95T446 19T300 -9ZM249 -116V18L260 88V641L249 701V828H371V701L362 641V88L371 18V-116H249Z" />
<glyph unicode="%" horiz-adv-x="900" d="M190 281Q110 281 64 336T17 500Q17 607 63 661T190 716Q270 716 316 661T362 499Q362 391 316 336T190 281ZM190 376Q214 376 225 404T237 499Q237 565 225 593T190 621Q166 621 154 593T142 499Q142 432 154 404T190
376ZM171 0L584 712H730L317 0H171ZM710 -4Q630 -4 584 51T537 215Q537 322 583 376T710 431Q790 431 836 376T882 214Q882 106 836 51T710 -4ZM710 91Q734 91 745 119T757 214Q757 280 745 308T710 336Q686 336 674 308T662 214Q662 147 674 119T710 91Z" />
<glyph unicode="&amp;" horiz-adv-x="697" d="M286 -8Q210 -8 153 17T64 86T32 191Q32 267 81 323T236 426Q288 450 319 470T363 510T377 552Q377 583 359 600T312 618Q279 618 259 599T239 546Q239 530 245 515T268 480T315 430L560 189Q595 153 636 130T726
94L653 -10Q599 6 557 30T477 92L186 382Q158 410 140 437T113 490T104 544Q104 597 130 636T202 697T310 719Q395 719 446 675T497 558Q497 514 476 477T412 406T302 344Q260 325 233 304T192 257T179 201Q179 157 209 132T290 107Q355 107 408 149T496 266T536
435H661Q657 340 627 259T545 118T428 25T286 -8Z" />
<glyph unicode="&apos;" horiz-adv-x="257" d="M79 411L41 712H215L180 411H79Z" />
<glyph unicode="(" horiz-adv-x="378" d="M231 -182Q183 -99 154 -25T113 119T100 266Q100 342 113 414T154 559T232 712H353Q313 615 293 540T264 398T256 266Q256 199 264 134T292 -8T350 -182H231Z" />
<glyph unicode=")" horiz-adv-x="378" d="M146 -182H27Q65 -84 85 -8T113 133T121 266Q121 332 114 398T85 539T26 712H146Q217 593 247 486T277 266Q277 190 265 120T224 -25T146 -182Z" />
<glyph unicode="*" horiz-adv-x="459" d="M153 336L70 397L159 504L23 540L56 639L185 588L177 727H281L272 589L403 639L435 540L299 505L388 397L304 336L229 453L153 336Z" />
<glyph unicode="+" horiz-adv-x="600" d="M546 341V238H54V341H546ZM248 536H352V43H248V536Z" />
<glyph unicode="," horiz-adv-x="263" d="M121 -144L63 -98Q98 -63 113 -32T128 36L164 0H49V161H213V57Q213 1 193 -47T121 -144Z" />
<glyph unicode="-" horiz-adv-x="444" d="M67 211V329H378V211H67Z" />
<glyph unicode="." horiz-adv-x="263" d="M49 161H213V0H49V161Z" />
<glyph unicode="/" horiz-adv-x="333" d="M97 -61H-27L235 755H359L97 -61Z" />
<glyph unicode="0" horiz-adv-x="600" d="M300 -9Q171 -9 103 84T34 357Q34 533 102 626T300 719Q429 719 497 626T566 357Q566 179 498 85T300 -9ZM300 111Q359 111 386 169T413 357Q413 484 386 542T300 600Q241 600 214 542T187 357Q187 227 214 169T300 111Z" />
<glyph unicode="1" horiz-adv-x="600" d="M257 72V589L331 582L113 453V590L322 712H413V72H257ZM103 0V125H568V0H103Z" />
<glyph unicode="2" horiz-adv-x="601" d="M65 0V115L302 367Q339 408 357 443T376 514Q376 556 351 577T279 598Q234 598 187 581T91 529L41 641Q84 678 151 699T287 721Q360 721 415 697T499 629T529 524Q529 461 504 409T418 293L214 79L194 125H554V0H65Z" />
<glyph unicode="3" horiz-adv-x="600" d="M283 -8Q210 -8 142 13T31 72L81 184Q128 149 177 132T276 115Q341 115 370 137T400 209Q400 256 371 278T276 300H174V421H258Q321 421 351 442T381 508Q381 552 354 575T279 598Q233 598 185 581T91 529L41 641Q84 678
151 699T289 721Q362 721 416 698T499 631T529 529Q529 467 497 423T404 362V370Q473 355 510 309T547 194Q547 100 476 46T283 -8Z" />
<glyph unicode="4" horiz-adv-x="600" d="M331 0V519H363L148 210V251H582V130H34V246L360 712H485V0H331Z" />
<glyph unicode="5" horiz-adv-x="600" d="M294 -8Q226 -8 160 13T52 72L102 184Q149 150 198 133T296 115Q358 115 389 143T421 226Q421 262 407 287T365 326T299 340Q265 340 230 328T166 291H77V712H534V592H229V388L182 396Q213 428 252 444T343 461Q410 461
460 432T540 352T569 232Q569 160 535 106T440 22T294 -8Z" />
<glyph unicode="6" horiz-adv-x="600" d="M324 -9Q186 -9 110 83T34 346Q34 463 70 547T173 676T334 721Q400 721 462 701T568 641L517 529Q469 566 424 582T341 598Q267 598 228 535T189 349V313L174 337Q183 375 208 403T271 446T352 462Q415 462 463 433T539
351T567 232Q567 162 536 108T450 22T324 -9ZM315 113Q363 113 392 144T421 226Q421 278 393 309T315 340Q284 340 260 326T222 286T208 226Q208 192 221 167T259 128T315 113Z" />
<glyph unicode="7" horiz-adv-x="600" d="M239 0H72L412 632L414 587H45V712H556V596L239 0Z" />
<glyph unicode="8" horiz-adv-x="600" d="M300 -8Q220 -8 159 16T62 86T27 194Q27 269 76 316T209 374L207 358Q133 372 89 417T44 528Q44 588 77 631T169 697T300 721Q373 721 431 698T522 631T556 528Q556 461 512 416T395 359L392 374Q476 362 524 315T573
194Q573 131 538 86T442 17T300 -8ZM300 111Q357 111 392 135T428 206Q428 251 392 277T300 312Q244 303 208 277T172 206Q172 159 207 135T300 111ZM300 409Q347 417 378 442T409 511Q409 557 379 579T300 602Q252 602 222 580T191 511Q191 467 222 442T300 409Z"
/>
<glyph unicode="9" horiz-adv-x="600" d="M276 721Q415 721 490 629T565 366Q565 249 529 165T426 36T266 -9Q200 -9 138 11T32 71L83 183Q133 146 177 130T259 114Q334 114 372 177T411 363V399L427 375Q417 337 391 309T328 266T248 250Q185 250 137 279T60
361T32 480Q32 550 63 604T150 690T276 721ZM285 599Q236 599 208 568T180 486Q180 434 208 403T285 372Q316 372 340 386T378 426T392 486Q392 520 379 545T341 584T285 599Z" />
<glyph unicode=":" horiz-adv-x="263" d="M49 161H213V0H49V161ZM49 496H213V335H49V496Z" />
<glyph unicode=";" horiz-adv-x="263" d="M49 496H213V335H49V496ZM121 -144L63 -98Q98 -63 113 -32T128 36L164 0H49V161H213V57Q213 1 193 -47T121 -144Z" />
<glyph unicode="&lt;" horiz-adv-x="600" d="M54 233V346L546 547V434L94 252V327L546 145V31L54 233Z" />
<glyph unicode="=" horiz-adv-x="600" d="M546 442V339H54V442H546ZM546 240V137H54V240H546Z" />
<glyph unicode="&gt;" horiz-adv-x="600" d="M546 233L54 31V145L506 327V252L54 434V547L546 346V233Z" />
<glyph unicode="?" horiz-adv-x="473" d="M89 680Q124 702 164 711T242 721Q308 721 357 700T435 640T463 550Q463 508 446 476T403 416T350 365T303 315T279 259L273 225H184V275Q184 318 196 348T228 402T265 445T296 487T309 536Q309 566 289 582T230 598Q198
598 162 588T89 555V680ZM149 0V161H311V0H149Z" />
<glyph unicode="@" horiz-adv-x="948" d="M484 -161Q347 -161 248 -106T95 45T41 268Q41 375 74 458T168 600T309 689T486 719Q588 719 666 690T799 610T880 491T907 343Q907 276 892 224T848 136T781 82T698 64Q643 64 611 87T570 149H568Q544 114 510 89T421
64Q345 64 304 114T263 246Q263 300 278 347T322 430T389 485T475 505Q515 505 547 488T592 439H595L605 496H714L671 258Q662 205 670 178T717 151Q730 151 745 160T774 192T796 251T805 343Q805 406 785 458T725 548T625 606T486 627Q414 627 353 603T246 534T175
421T150 268Q150 166 190 91T305 -26T484 -68Q560 -68 612 -50T691 0H831Q794 -69 705 -115T484 -161ZM445 151Q487 151 516 176T559 242T573 325Q573 371 552 394T494 418Q454 418 427 392T387 326T373 246Q373 203 392 177T445 151Z" />
<glyph unicode="A" horiz-adv-x="759" d="M146 0H-11L316 712H442L769 0H614L362 588H400L146 0ZM137 158L197 277H553L612 158H137Z" />
<glyph unicode="B" horiz-adv-x="696" d="M71 0V712H399Q509 712 574 663T639 527Q639 468 606 425T514 364V372Q583 356 620 310T658 195Q658 105 592 53T409 0H71ZM224 120H391Q454 120 482 141T511 210Q511 257 483 279T391 302H224V120ZM224 422H373Q434 422
462 443T491 507Q491 551 462 571T373 592H224V422Z" />
<glyph unicode="C" horiz-adv-x="685" d="M405 -9Q296 -9 216 36T93 163T50 357Q50 467 93 549T216 676T405 721Q476 721 540 700T646 639L597 527Q549 563 504 579T408 596Q313 596 261 536T209 357Q209 239 261 178T408 116Q458 116 503 132T597 185L646 73Q604
34 540 13T405 -9Z" />
<glyph unicode="D" horiz-adv-x="771" d="M71 0V712H347Q464 712 547 670T675 549T720 357Q720 244 676 165T549 43T347 0H71ZM227 126H336Q450 126 507 183T564 357Q564 586 336 586H227V126Z" />
<glyph unicode="E" horiz-adv-x="599" d="M71 0V712H562V591H224V423H541V301H224V121H562V0H71Z" />
<glyph unicode="F" horiz-adv-x="578" d="M71 0V712H551V588H225V423H531V300H225V0H71Z" />
<glyph unicode="G" horiz-adv-x="745" d="M418 -9Q304 -9 222 35T95 161T50 357Q50 469 94 551T220 677T411 721Q487 721 554 700T664 641L614 529Q563 565 517 581T415 597Q312 597 261 537T209 357Q209 234 262 173T425 111Q463 111 501 117T576 137L542 86V284H402V393H683V44Q648
27 605 15T514 -3T418 -9Z" />
<glyph unicode="H" horiz-adv-x="779" d="M554 0V712H707V0H554ZM71 0V712H224V0H71ZM121 300V423H646V300H121Z" />
<glyph unicode="I" horiz-adv-x="299" d="M71 0V712H227V0H71Z" />
<glyph unicode="J" horiz-adv-x="381" d="M0 -179V-52Q63 -61 95 -57T140 -31T153 40V712H309V42Q309 -50 281 -105T185 -178T0 -179Z" />
<glyph unicode="K" horiz-adv-x="684" d="M537 0L194 364L526 712H712L336 325L347 408L725 0H537ZM71 0V712H227V0H71Z" />
<glyph unicode="L" horiz-adv-x="569" d="M71 0V712H227V127H545V0H71Z" />
<glyph unicode="M" horiz-adv-x="851" d="M73 0V712H197L454 125H399L655 712H778V0H640L639 481L675 472L476 0H375L172 472L210 481V0H73Z" />
<glyph unicode="N" horiz-adv-x="760" d="M71 0V712H186L570 222L541 203V712H688V0H572L190 488L217 509V0H71Z" />
<glyph unicode="O" horiz-adv-x="795" d="M398 -9Q291 -9 213 36T93 163T50 357Q50 468 92 550T213 676T398 721Q505 721 582 677T702 550T744 357Q744 245 702 163T583 36T398 -9ZM398 112Q486 112 537 174T589 357Q589 477 538 538T398 600Q309 600 258 539T207
357Q207 236 258 174T398 112Z" />
<glyph unicode="P" horiz-adv-x="675" d="M71 0V712H394Q514 712 578 655T643 500Q643 403 578 346T394 288H227V0H71ZM227 407H374Q436 407 466 431T496 499Q496 544 467 568T374 592H227V407Z" />
<glyph unicode="Q" horiz-adv-x="795" d="M592 -191Q538 -155 495 -106T420 -4L556 51Q581 0 619 -39T697 -112L592 -191ZM398 -9Q291 -9 213 36T93 163T50 357Q50 468 92 550T213 676T398 721Q505 721 582 677T702 550T744 357Q744 245 702 163T583 36T398 -9ZM398
112Q486 112 537 174T589 357Q589 477 538 538T398 600Q309 600 258 539T207 357Q207 236 258 174T398 112Z" />
<glyph unicode="R" horiz-adv-x="708" d="M71 0V712H388Q513 712 577 658T641 503Q641 408 575 351T391 293L473 310Q510 310 539 288T586 221L672 0H507L416 237Q405 266 381 276T326 287H225V0H71ZM224 406H365Q432 406 463 429T494 499Q494 547 464 569T365
592H224V406Z" />
<glyph unicode="S" horiz-adv-x="657" d="M320 -9Q266 -9 215 0T118 28T40 73L91 185Q144 148 201 130T321 112Q389 112 425 134T462 195Q462 218 447 234T399 262T311 286Q242 300 193 319T114 363T69 421T55 499Q55 562 90 612T189 692T338 721Q389 721 437
711T527 683T596 639L546 527Q498 564 446 582T340 600Q279 600 243 576T207 509Q207 486 221 470T267 442T357 416Q424 402 473 383T553 340T600 283T615 208Q615 141 580 93T479 18T320 -9Z" />
<glyph unicode="T" horiz-adv-x="628" d="M235 0V585H12V712H616V585H393V0H235Z" />
<glyph unicode="U" horiz-adv-x="746" d="M374 -9Q223 -9 146 68T68 294V712H220V287Q220 202 259 157T374 112Q447 112 486 157T525 287V712H680V294Q680 146 601 69T374 -9Z" />
<glyph unicode="V" horiz-adv-x="735" d="M305 0L-16 712H147L392 142H346L593 712H751L431 0H305Z" />
<glyph unicode="W" horiz-adv-x="1126" d="M271 0L18 712H177L360 161H320L513 712H622L807 161H772L958 712H1107L854 0H729L551 506H576L396 0H271Z" />
<glyph unicode="X" horiz-adv-x="681" d="M162 0H-20L251 361L340 475L512 712H694L428 361L340 246L162 0ZM518 0L340 246L251 361L-12 712H169L340 475L428 361L700 0H518Z" />
<glyph unicode="Y" horiz-adv-x="642" d="M242 0V320L275 230L-51 712H126L341 375H299L516 712H694L368 230L399 320V0H242Z" />
<glyph unicode="Z" horiz-adv-x="616" d="M51 0V114L425 632L424 588H51V712H569V599L192 80L194 124H580V0H51Z" />
<glyph unicode="[" horiz-adv-x="376" d="M105 -182V712H362V599H253V-69H362V-182H105Z" />
<glyph unicode="\" horiz-adv-x="332" d="M234 -61L-27 755H97L358 -61H234Z" />
<glyph unicode="]" horiz-adv-x="376" d="M271 -182H14V-69H122V599H14V712H271V-182Z" />
<glyph unicode="^" horiz-adv-x="600" d="M357 637L559 144H445L263 596H337L155 144H41L243 637H357Z" />
<glyph unicode="_" horiz-adv-x="505" d="M14 -88V0H491V-88H14Z" />
<glyph unicode="`" horiz-adv-x="300" d="M105 561L-49 767H100L198 561H105Z" />
<glyph unicode="a" horiz-adv-x="630" d="M260 -8Q194 -8 143 24T64 115T36 253Q36 332 64 392T143 486T260 520Q321 520 368 490T432 409L420 401V507H569V0H420V104L432 102Q415 50 368 21T260 -8ZM304 107Q359 107 389 145T420 255Q420 327 390 365T304 404Q249
404 218 364T186 253Q186 182 216 145T304 107Z" />
<glyph unicode="b" horiz-adv-x="632" d="M61 0V736H212V391L200 409Q216 459 262 489T371 520Q437 520 487 488T567 396T596 258Q596 178 567 119T488 26T371 -8Q309 -8 263 21T200 102L211 124V0H61ZM328 107Q383 107 413 146T444 258Q444 328 414 366T328 404Q271
404 241 365T211 256Q211 183 241 145T328 107Z" />
<glyph unicode="c" horiz-adv-x="509" d="M301 -8Q219 -8 159 24T68 114T36 253Q36 333 70 393T165 486T308 520Q362 520 414 503T498 457L458 352Q428 376 392 389T322 403Q261 403 226 366T191 256Q191 182 225 145T322 108Q356 108 392 121T458 159L498 54Q465
25 412 9T301 -8Z" />
<glyph unicode="d" horiz-adv-x="630" d="M569 0H420V124L432 102Q415 50 368 21T260 -8Q194 -8 144 25T65 118T36 258Q36 337 64 396T143 487T260 520Q321 520 368 490T432 409L418 391V736H569V0ZM304 107Q359 107 389 145T420 256Q420 326 390 365T304 404Q247
404 217 366T186 258Q186 185 217 146T304 107Z" />
<glyph unicode="e" horiz-adv-x="550" d="M507 54Q470 25 417 9T310 -8Q225 -8 164 24T69 115T36 255Q36 333 68 393T155 486T285 520Q356 520 408 489T488 400T516 263V241H169L171 316H426L387 285Q388 349 363 381T289 414Q237 414 209 377T180 267Q180 182
213 144T316 106Q356 106 395 119T467 156L507 54Z" />
<glyph unicode="f" horiz-adv-x="385" d="M4 394V507H356V394H4ZM376 610Q347 617 327 617Q306 617 288 609T260 583T250 535V0H99V539Q99 634 147 687T290 741Q313 741 334 738T376 728V610Z" />
<glyph unicode="g" horiz-adv-x="634" d="M300 -224Q180 -224 90 -177L113 -65Q158 -88 204 -99T295 -110Q360 -110 392 -80T424 12V129L436 123Q424 95 399 70T339 30T262 14Q196 14 145 45T65 134T36 267Q36 343 65 399T145 488T262 520Q324 520 371 490T436
409L424 400V507H574V24Q574 -98 505 -161T300 -224ZM306 129Q361 129 392 165T424 267Q424 330 393 367T306 404Q250 404 218 368T186 267Q186 203 218 166T306 129Z" />
<glyph unicode="h" horiz-adv-x="612" d="M61 0V736H212V404L195 409Q221 463 267 491T375 520Q554 520 554 307V0H403V300Q403 354 384 378T322 402Q272 402 242 370T212 284V0H61Z" />
<glyph unicode="i" horiz-adv-x="274" d="M61 0V507H212V0H61ZM311 745H474V603H311V745Z" />
<glyph unicode="j" horiz-adv-x="274" d="M-65 -93Q-50 -97 -39 -98T-16 -100Q5 -100 23 -92T51 -66T61 -18V507H212V-22Q212 -117 164 -170T21 -224Q-1 -224 -23 -221T-65 -211V-93ZM310 745H473V603H310V745Z" />
<glyph unicode="k" horiz-adv-x="573" d="M411 0L186 258L402 506H583L334 225L341 294L596 0H411ZM61 0V736H212V0H61Z" />
<glyph unicode="l" horiz-adv-x="274" d="M61 0V736H212V0H61Z" />
<glyph unicode="m" horiz-adv-x="911" d="M61 0V362Q61 398 60 434T53 507H195L206 408L195 412Q216 463 259 491T364 520Q433 520 473 485T527 377L503 404Q525 456 573 488T682 520Q769 520 811 467T853 307V0H702V302Q702 354 685 378T629 402Q584 402 558
370T532 279V0H381V302Q381 354 364 378T309 402Q263 402 238 370T212 279V0H61Z" />
<glyph unicode="n" horiz-adv-x="612" d="M61 0V362Q61 398 60 434T53 507H195L206 408L195 409Q221 463 267 491T375 520Q554 520 554 307V0H403V300Q403 354 384 378T322 402Q272 402 242 370T212 284V0H61Z" />
<glyph unicode="o" horiz-adv-x="604" d="M303 -8Q221 -8 161 24T69 115T36 256Q36 337 68 396T161 487T303 520Q383 520 443 488T535 396T568 256Q568 175 536 116T443 24T303 -8ZM303 107Q358 107 388 143T418 256Q418 331 388 367T303 404Q247 404 217 368T186
256Q186 180 216 144T303 107Z" />
<glyph unicode="p" horiz-adv-x="632" d="M61 -216V362Q61 398 60 434T53 507H195L206 409H200Q216 460 262 490T371 520Q437 520 487 487T567 393T596 253Q596 174 567 115T488 24T371 -8Q309 -8 263 21T200 102L212 121V-216H61ZM328 107Q384 107 414 144T444
253Q444 324 414 364T328 404Q271 404 241 366T211 255Q211 183 241 145T328 107Z" />
<glyph unicode="q" horiz-adv-x="630" d="M569 -216H418V121L432 102Q415 50 368 21T260 -8Q194 -8 143 24T64 115T36 253Q36 332 64 392T143 486T260 520Q321 520 368 490T432 409H423L436 507H578Q573 471 571 435T569 362V-216ZM304 107Q359 107 389 145T420
255Q420 327 390 365T304 404Q249 404 218 364T186 253Q186 182 216 145T304 107Z" />
<glyph unicode="r" horiz-adv-x="410" d="M61 0V362Q61 398 60 434T53 507H195L211 373L195 381Q207 449 252 484T356 519Q373 519 386 516T410 509L409 371Q372 388 335 388Q294 388 268 373T227 331T212 265V0H61Z" />
<glyph unicode="s" horiz-adv-x="504" d="M256 -8Q111 -8 27 54L68 159Q108 130 157 115T257 99Q296 99 317 111T338 146Q338 165 323 175T270 195L187 215Q113 230 79 265T44 358Q44 405 71 441T148 499T262 520Q317 520 368 504T461 457L419 356Q380 383 340
397T261 411Q224 411 203 398T182 362Q182 345 194 335T239 317L324 298Q402 280 437 244T472 148Q472 76 415 34T256 -8Z" />
<glyph unicode="t" horiz-adv-x="396" d="M4 394V507H380V394H4ZM380 122V6Q359 -2 338 -5T293 -8Q199 -8 150 45T100 194V626L251 675V197Q251 167 262 149T291 124T330 116Q342 116 353 117T380 122Z" />
<glyph unicode="u" horiz-adv-x="606" d="M247 -8Q152 -8 105 45T58 205V507H209V202Q209 155 228 133T289 110Q335 110 364 142T393 227V507H545V0H398V101L411 100Q389 47 347 20T247 -8Z" />
<glyph unicode="v" horiz-adv-x="551" d="M211 0L-10 506H147L293 139H263L412 506H561L338 0H211Z" />
<glyph unicode="w" horiz-adv-x="891" d="M205 0L0 507H155L289 145H264L397 507H500L634 145H612L744 507H890L685 0H558L410 379H476L333 0H205Z" />
<glyph unicode="x" horiz-adv-x="557" d="M401 0L278 155L193 261L-9 507H169L278 366L365 261L579 0H401ZM156 0H-22L193 261L278 366L387 507H567L365 261L278 155L156 0Z" />
<glyph unicode="y" horiz-adv-x="551" d="M58 -228L23 -112Q70 -103 100 -90T151 -56T184 -7L223 80L263 139L412 507H561L328 -26Q297 -96 257 -137T167 -199T58 -228ZM227 -38L-10 507H147L293 139L227 -38Z" />
<glyph unicode="z" horiz-adv-x="530" d="M48 0V106L333 426L342 394H52V507H485V405L196 80L190 113H495V0H48Z" />
<glyph unicode="{" horiz-adv-x="413" d="M335 -182Q243 -182 193 -138T142 -8V109Q142 163 129 184T82 216L40 229V299L82 313Q115 324 128 345T142 420V538Q142 623 192 667T335 712H399V599H362Q334 599 312 577T290 506V383Q290 346 275 320T237 278T191 263V267Q213
267 236 252T275 210T290 146V24Q290 -23 312 -46T362 -69H399V-182H335Z" />
<glyph unicode="|" horiz-adv-x="293" d="M76 -182V712H216V-182H76Z" />
<glyph unicode="}" horiz-adv-x="413" d="M78 -182H14V-69H52Q79 -69 100 -46T122 24V146Q122 183 138 210T177 252T223 267V263Q201 263 178 278T138 319T122 383V506Q122 554 101 576T52 599H14V712H78Q170 712 220 668T271 538V420Q271 366 285 345T331 313L373
299V229L331 216Q299 206 285 185T271 109V-8Q271 -94 221 -138T78 -182Z" />
<glyph unicode="~" horiz-adv-x="600" d="M469 365L546 315Q530 264 492 235T408 206Q377 206 349 216T294 241T245 265T202 276Q176 276 159 261T131 214L54 265Q71 315 108 344T192 374Q223 374 251 364T306 340T355 315T398 304Q424 304 441 319T469 365Z" />
<glyph unicode="&#xa0;" horiz-adv-x="281" />
<glyph unicode="&#xa1;" horiz-adv-x="263" d="M85 266H177L224 -181L38 -182L85 266ZM49 335V496H213V335H49Z" />
<glyph unicode="&#xa2;" horiz-adv-x="600" d="M343 -8Q263 -8 203 24T111 114T78 253Q78 332 112 392T208 486T349 520Q404 520 456 503T540 457L499 352Q470 376 434 389T364 403Q301 403 267 365T233 256Q233 183 266 146T364 108Q397 108 433 121T499 159L540
54Q506 25 454 9T343 -8ZM300 -119V630H421V-119H300Z" />
<glyph unicode="&#xa3;" horiz-adv-x="600" d="M39 310V403H430V310H39ZM268 509V251Q268 203 257 172T217 121T137 87L139 125H572V0H39V105Q81 127 97 154T113 229V520Q113 580 142 625T222 696T343 721Q412 721 473 701T582 641L531 529Q484 564 439 581T356
598Q313 598 291 576T268 509Z" />
<glyph unicode="&#xa4;" horiz-adv-x="600" d="M298 -3Q230 -3 175 31T86 121T53 247Q53 317 86 373T174 464T298 498Q366 498 421 464T509 374T542 247Q542 178 509 122T421 31T298 -3ZM101 -11L45 43L146 148L203 92L101 -11ZM496 -11L389 99L441 158L550 43L496
-11ZM298 114Q332 114 360 132T405 181T422 247Q422 284 406 314T361 362T298 380Q263 381 235 363T191 315T174 247Q174 211 190 181T234 133T298 114ZM130 364L45 451L102 507L190 417L130 364ZM460 354L400 413L493 509L553 449L460 354Z" />
<glyph unicode="&#xa5;" horiz-adv-x="600" d="M221 0V406L254 300L-26 712H142L316 442H284L458 712H626L345 300L378 406V0H221ZM64 159V251H536V159H64ZM64 314V407H536V314H64Z" />
<glyph unicode="&#xa6;" horiz-adv-x="293" d="M76 375V712H216V375H76ZM76 -182V156H216V-182H76Z" />
<glyph unicode="&#xa7;" horiz-adv-x="585" d="M441 56L380 122Q396 134 407 156T419 196Q419 224 399 249T338 294L205 360Q162 380 133 406T88 463T72 527Q72 615 135 666T306 719Q365 720 416 705T508 660L469 559Q434 583 395 596T318 609Q271 609 245 591T219
540Q219 517 234 499T283 466L414 406Q486 374 520 330T554 227Q554 173 525 129T441 56ZM274 -189Q208 -188 153 -173T58 -127L97 -23Q139 -50 183 -64T270 -78Q314 -78 340 -60T366 -10Q366 15 351 32T302 65L170 125Q97 157 64 199T31 303Q31 356 57 398T132
469L200 405Q185 390 175 371T165 334Q165 306 185 282T246 236L381 174Q423 154 452 127T497 69T513 3Q513 -90 451 -140T274 -189Z" />
<glyph unicode="&#xa8;" horiz-adv-x="300" d="M178 729H317V596H178V729ZM-14 729H125V596H-14V729Z" />
<glyph unicode="&#xa9;" horiz-adv-x="823" d="M412 -5Q335 -5 270 22T155 99T79 215T51 357Q51 434 78 499T155 613T269 689T412 717Q489 717 554 690T669 614T745 500T773 357Q773 281 746 215T669 100T555 23T412 -5ZM412 58Q476 58 530 80T623 143T685 238T707
357Q707 420 685 474T624 569T530 631T412 654Q348 654 294 632T200 569T138 475T116 357Q116 293 138 239T200 144T294 81T412 58ZM426 138Q325 138 266 197T207 357Q207 422 233 471T309 547T426 574Q473 574 513 562T583 525L549 433Q532 445 504 457T447 469Q398
469 371 440T343 357Q343 302 370 273T447 243Q475 243 503 255T549 279L583 187Q554 163 514 151T426 138Z" />
<glyph unicode="&#xaa;" horiz-adv-x="342" d="M119 405Q89 405 66 419T29 455T16 502Q16 545 52 566T179 588H215V532H193Q165 532 151 529T133 520T128 507Q128 498 136 492T159 485Q177 485 189 495T201 526V599Q201 614 192 620T158 627Q134 627 110 621T62
604L39 690Q65 702 99 709T173 717Q247 717 283 683T320 577V410H204V477L206 467Q196 436 173 421T119 405Z" />
<glyph unicode="&#xab;" horiz-adv-x="529" d="M157 85L21 267L157 451H283L152 268L282 85H157ZM381 85L245 267L381 451H507L376 268L506 85H381Z" />
<glyph unicode="&#xac;" horiz-adv-x="600" d="M546 443V136H440V339H54V443H546Z" />
<glyph unicode="&#xad;" horiz-adv-x="444" d="M67 211V329H378V211H67Z" />
<glyph unicode="&#xae;" horiz-adv-x="823" d="M412 -5Q335 -5 270 22T155 99T79 215T51 357Q51 434 78 499T155 613T269 689T412 717Q489 717 554 690T669 614T745 500T773 357Q773 281 746 215T669 100T555 23T412 -5ZM412 58Q476 58 530 80T623 143T685 238T707
357Q707 420 685 474T624 569T530 631T412 654Q348 654 294 632T200 569T138 475T116 357Q116 293 138 239T200 144T294 81T412 58ZM236 143V571H440Q519 571 560 534T602 435Q602 377 562 339T447 300L488 307Q512 307 535 295T573 256L631 143H482L414 281Q411
288 406 292T393 296H369V143H236ZM368 389H422Q449 389 462 397T475 428Q475 452 462 461T422 470H368V389Z" />
<glyph unicode="&#xaf;" horiz-adv-x="300" d="M-6 615V710H309V615H-6Z" />
<glyph unicode="&#xb0;" horiz-adv-x="372" d="M186 413Q142 413 107 433T52 487T31 565Q31 609 51 643T107 697T186 717Q230 717 265 698T320 644T340 565Q340 522 320 488T265 433T186 413ZM186 490Q216 490 237 511T259 565Q259 598 238 619T186 640Q155 640
134 619T113 565Q113 532 134 511T186 490Z" />
<glyph unicode="&#xb1;" horiz-adv-x="600" d="M546 392V288H54V392H546ZM248 536H352V144H248V536ZM546 104V0H54V104H546Z" />
<glyph unicode="&#xb2;" horiz-adv-x="380" d="M43 285V380L176 520Q192 538 201 553T211 584Q211 600 200 609T164 618Q138 618 108 609T51 583L29 677Q59 694 103 705T187 716Q257 716 299 682T342 593Q342 558 325 526T260 450L164 362L156 386H351V285H43Z" />
<glyph unicode="&#xb3;" horiz-adv-x="380" d="M183 280Q141 280 97 290T24 319L44 413Q73 397 104 388T172 378Q204 378 218 387T232 414Q232 433 219 442T177 451H105V550H165Q194 550 207 558T220 585Q220 600 208 609T170 618Q142 618 110 609T51 583L29 677Q59
694 102 705T180 716Q260 716 300 681T341 597Q341 563 322 538T267 503L269 507Q308 497 331 471T354 403Q354 370 335 342T278 297T183 280Z" />
<glyph unicode="&#xb4;" horiz-adv-x="300" d="M198 561H105L203 767H352L198 561Z" />
<glyph unicode="&#xb5;" horiz-adv-x="606" d="M545 507V0H398V101L411 100Q389 47 347 20T247 -8Q227 -8 212 -5T180 3L209 44V-216H58V507H209V202Q209 155 228 133T289 110Q335 110 364 142T393 227V507H545Z" />
<glyph unicode="&#xb6;" horiz-adv-x="637" d="M565 712V-182H464V622H356V-182H255V269Q188 269 138 297T60 375T32 491Q32 557 60 607T139 684T258 712H565Z" />
<glyph unicode="&#xb7;" horiz-adv-x="263" d="M49 352H213V190H49V352Z" />
<glyph unicode="&#xb8;" horiz-adv-x="300" d="M138 -199Q117 -199 91 -195T43 -181L55 -122Q79 -129 98 -132T133 -136Q154 -136 167 -130T180 -110Q180 -90 147 -90Q138 -90 128 -92T111 -97L91 -76L104 20H185L174 -56L137 -49Q148 -45 163 -43T189 -40Q228
-40 251 -59T274 -110Q274 -148 240 -173T138 -199Z" />
<glyph unicode="&#xb9;" horiz-adv-x="380" d="M153 348V595L206 603L76 535V651L191 712H282V348H153ZM71 285V386H363V285H71Z" />
<glyph unicode="&#xba;" horiz-adv-x="377" d="M189 405Q129 405 91 427T34 485T16 562Q16 603 34 638T90 695T189 717Q248 717 286 696T343 639T362 562Q362 521 344 485T287 427T189 405ZM189 502Q212 502 226 518T240 562Q240 592 226 606T189 620Q166 620
152 606T138 562Q138 534 152 518T189 502Z" />
<glyph unicode="&#xbb;" horiz-adv-x="529" d="M149 85H24L154 268L22 451H149L284 267L149 85ZM373 85H248L378 268L246 451H373L508 267L373 85Z" />
<glyph unicode="&#xbc;" horiz-adv-x="962" d="M153 348V595L206 603L76 535V651L191 712H282V348H153ZM71 285V386H363V285H71ZM322 -30L224 27L640 742L737 685L322 -30ZM782 0V290L801 296L680 133L675 158H956V64H594V154L795 427H896V0H782Z" />
<glyph unicode="&#xbd;" horiz-adv-x="962" d="M153 348V595L206 603L76 535V651L191 712H282V348H153ZM71 285V386H363V285H71ZM322 -30L224 27L640 742L737 685L322 -30ZM625 0V95L758 235Q774 253 783 268T793 299Q793 315 782 324T746 333Q720 333 690 324T633
298L611 392Q641 409 685 420T769 431Q839 431 881 397T924 308Q924 273 907 241T842 165L746 77L738 101H933V0H625Z" />
<glyph unicode="&#xbe;" horiz-adv-x="962" d="M183 280Q141 280 97 290T24 319L44 413Q73 397 104 388T172 378Q204 378 218 387T232 414Q232 433 219 442T177 451H105V550H165Q194 550 207 558T220 585Q220 600 208 609T170 618Q142 618 110 609T51 583L29 677Q59
694 102 705T180 716Q260 716 300 681T341 597Q341 563 322 538T267 503L269 507Q308 497 331 471T354 403Q354 370 335 342T278 297T183 280ZM322 -30L224 27L640 742L737 685L322 -30ZM782 0V290L801 296L680 133L675 158H956V64H594V154L795 427H896V0H782Z"
/>
<glyph unicode="&#xbf;" horiz-adv-x="473" d="M230 -190Q171 -190 121 -170T40 -112T10 -19Q10 20 27 49T70 100T122 143T169 186T194 238L200 271H289V220Q289 180 277 152T245 105T208 69T177 36T164 -5Q164 -32 183 -49T242 -67Q275 -67 311 -57T384 -23V-148Q348
-171 309 -180T230 -190ZM161 335V496H323V335H161Z" />
<glyph unicode="&#xc0;" horiz-adv-x="759" d="M146 0H-11L316 712H442L769 0H614L362 588H400L146 0ZM137 158L197 277H553L612 158H137ZM332 773L182 930H322L425 773H332Z" />
<glyph unicode="&#xc1;" horiz-adv-x="759" d="M146 0H-11L316 712H442L769 0H614L362 588H400L146 0ZM137 158L197 277H553L612 158H137ZM425 773H332L435 930H575L425 773Z" />
<glyph unicode="&#xc2;" horiz-adv-x="759" d="M146 0H-11L316 712H442L769 0H614L362 588H400L146 0ZM137 158L197 277H553L612 158H137ZM316 773H202L336 930H421L555 773H441L379 859L316 773Z" />
<glyph unicode="&#xc3;" horiz-adv-x="759" d="M146 0H-11L316 712H442L769 0H614L362 588H400L146 0ZM137 158L197 277H553L612 158H137ZM203 780Q203 856 235 891T312 927Q338 927 361 914T406 888T446 874Q464 874 476 887T490 924H554Q554 847 522 812T445
777Q419 777 396 790T351 816T311 829Q293 829 281 816T267 780H203Z" />
<glyph unicode="&#xc4;" horiz-adv-x="759" d="M146 0H-11L316 712H442L769 0H614L362 588H400L146 0ZM137 158L197 277H553L612 158H137ZM405 918H544V786H405V918ZM213 918H352V786H213V918Z" />
<glyph unicode="&#xc5;" horiz-adv-x="759" d="M380 677Q333 677 302 708T270 786Q270 831 301 862T380 894Q425 894 457 863T490 786Q490 739 458 708T380 677ZM380 739Q399 739 411 753T424 786Q424 805 412 818T380 831Q361 831 349 818T336 786Q336 767 348
753T380 739ZM146 0H-11L316 712H442L769 0H614L362 588H400L146 0ZM137 158L197 277H553L612 158H137Z" />
<glyph unicode="&#xc6;" horiz-adv-x="1010" d="M-31 0L417 712H973V590H470L501 611L138 0H-31ZM138 158L198 277H557L591 158H138ZM549 0L505 642H645L683 122H973V0H549ZM572 301V423H952V301H572Z" />
<glyph unicode="&#xc7;" horiz-adv-x="685" d="M405 -9Q296 -9 216 36T93 163T50 357Q50 467 93 549T216 676T405 721Q476 721 540 700T646 639L597 527Q549 563 504 579T408 596Q313 596 261 536T209 357Q209 239 261 178T408 116Q458 116 503 132T597 185L646
73Q604 34 540 13T405 -9ZM384 -199Q363 -199 337 -195T289 -181L301 -122Q325 -129 344 -132T379 -136Q400 -136 413 -130T426 -110Q426 -90 393 -90Q384 -90 374 -92T357 -97L337 -76L350 20H431L420 -56L383 -49Q394 -45 409 -43T435 -40Q474 -40 497 -59T520
-110Q520 -148 486 -173T384 -199Z" />
<glyph unicode="&#xc8;" horiz-adv-x="599" d="M71 0V712H562V591H224V423H541V301H224V121H562V0H71ZM286 773L136 930H276L379 773H286Z" />
<glyph unicode="&#xc9;" horiz-adv-x="599" d="M71 0V712H562V591H224V423H541V301H224V121H562V0H71ZM379 773H286L389 930H529L379 773Z" />
<glyph unicode="&#xca;" horiz-adv-x="599" d="M71 0V712H562V591H224V423H541V301H224V121H562V0H71ZM270 773H156L290 930H375L509 773H395L333 859L270 773Z" />
<glyph unicode="&#xcb;" horiz-adv-x="599" d="M71 0V712H562V591H224V423H541V301H224V121H562V0H71ZM359 918H498V786H359V918ZM167 918H306V786H167V918Z" />
<glyph unicode="&#xcc;" horiz-adv-x="299" d="M71 0V712H227V0H71ZM358 773L208 930H348L451 773H358Z" />
<glyph unicode="&#xcd;" horiz-adv-x="299" d="M71 0V712H227V0H71ZM451 773H358L461 930H601L451 773Z" />
<glyph unicode="&#xce;" horiz-adv-x="299" d="M71 0V712H227V0H71ZM342 773H228L362 930H447L581 773H467L405 859L342 773Z" />
<glyph unicode="&#xcf;" horiz-adv-x="299" d="M71 0V712H227V0H71ZM431 918H570V786H431V918ZM239 918H378V786H239V918Z" />
<glyph unicode="&#xd0;" horiz-adv-x="801" d="M14 301V419H445V301H14ZM101 0V712H377Q494 712 577 670T705 549T750 357Q750 244 706 165T579 43T377 0H101ZM258 126H366Q480 126 536 183T593 357Q593 586 366 586H258V126Z" />
<glyph unicode="&#xd1;" horiz-adv-x="760" d="M71 0V712H186L570 222L541 203V712H688V0H572L190 488L217 509V0H71ZM203 780Q203 856 235 891T312 927Q338 927 361 914T406 888T446 874Q464 874 476 887T490 924H554Q554 847 522 812T445 777Q419 777 396 790T351
816T311 829Q293 829 281 816T267 780H203Z" />
<glyph unicode="&#xd2;" horiz-adv-x="795" d="M398 -9Q291 -9 213 36T93 163T50 357Q50 468 92 550T213 676T398 721Q505 721 582 677T702 550T744 357Q744 245 702 163T583 36T398 -9ZM398 112Q486 112 537 174T589 357Q589 477 538 538T398 600Q309 600 258
539T207 357Q207 236 258 174T398 112ZM350 773L200 930H340L443 773H350Z" />
<glyph unicode="&#xd3;" horiz-adv-x="795" d="M398 -9Q291 -9 213 36T93 163T50 357Q50 468 92 550T213 676T398 721Q505 721 582 677T702 550T744 357Q744 245 702 163T583 36T398 -9ZM398 112Q486 112 537 174T589 357Q589 477 538 538T398 600Q309 600 258
539T207 357Q207 236 258 174T398 112ZM443 773H350L453 930H593L443 773Z" />
<glyph unicode="&#xd4;" horiz-adv-x="795" d="M398 -9Q291 -9 213 36T93 163T50 357Q50 468 92 550T213 676T398 721Q505 721 582 677T702 550T744 357Q744 245 702 163T583 36T398 -9ZM398 112Q486 112 537 174T589 357Q589 477 538 538T398 600Q309 600 258
539T207 357Q207 236 258 174T398 112ZM334 773H220L354 930H439L573 773H459L397 859L334 773Z" />
<glyph unicode="&#xd5;" horiz-adv-x="795" d="M398 -9Q291 -9 213 36T93 163T50 357Q50 468 92 550T213 676T398 721Q505 721 582 677T702 550T744 357Q744 245 702 163T583 36T398 -9ZM398 112Q486 112 537 174T589 357Q589 477 538 538T398 600Q309 600 258
539T207 357Q207 236 258 174T398 112ZM221 780Q221 856 253 891T330 927Q356 927 379 914T424 888T464 874Q482 874 494 887T508 924H572Q572 847 540 812T463 777Q437 777 414 790T369 816T329 829Q311 829 299 816T285 780H221Z" />
<glyph unicode="&#xd6;" horiz-adv-x="795" d="M398 -9Q291 -9 213 36T93 163T50 357Q50 468 92 550T213 676T398 721Q505 721 582 677T702 550T744 357Q744 245 702 163T583 36T398 -9ZM398 112Q486 112 537 174T589 357Q589 477 538 538T398 600Q309 600 258
539T207 357Q207 236 258 174T398 112ZM423 918H562V786H423V918ZM231 918H370V786H231V918Z" />
<glyph unicode="&#xd7;" horiz-adv-x="600" d="M463 526L536 453L137 54L64 127L463 526ZM137 526L536 127L463 54L64 453L137 526Z" />
<glyph unicode="&#xd8;" horiz-adv-x="795" d="M398 -9Q291 -9 213 36T93 163T50 357Q50 468 92 550T213 676T398 721Q505 721 582 677T702 550T744 357Q744 245 702 163T583 36T398 -9ZM218 -68L118 -8L577 780L677 720L218 -68ZM398 112Q486 112 537 174T589
357Q589 477 538 538T398 600Q309 600 258 539T207 357Q207 236 258 174T398 112Z" />
<glyph unicode="&#xd9;" horiz-adv-x="746" d="M374 -9Q223 -9 146 68T68 294V712H220V287Q220 202 259 157T374 112Q447 112 486 157T525 287V712H680V294Q680 146 601 69T374 -9ZM327 773L177 930H317L420 773H327Z" />
<glyph unicode="&#xda;" horiz-adv-x="746" d="M374 -9Q223 -9 146 68T68 294V712H220V287Q220 202 259 157T374 112Q447 112 486 157T525 287V712H680V294Q680 146 601 69T374 -9ZM420 773H327L430 930H570L420 773Z" />
<glyph unicode="&#xdb;" horiz-adv-x="746" d="M374 -9Q223 -9 146 68T68 294V712H220V287Q220 202 259 157T374 112Q447 112 486 157T525 287V712H680V294Q680 146 601 69T374 -9ZM311 773H197L331 930H416L550 773H436L374 859L311 773Z" />
<glyph unicode="&#xdc;" horiz-adv-x="746" d="M374 -9Q223 -9 146 68T68 294V712H220V287Q220 202 259 157T374 112Q447 112 486 157T525 287V712H680V294Q680 146 601 69T374 -9ZM400 918H539V786H400V918ZM208 918H347V786H208V918Z" />
<glyph unicode="&#xdd;" horiz-adv-x="642" d="M242 0V320L275 230L-51 712H126L341 375H299L516 712H694L368 230L399 320V0H242ZM367 773H274L377 930H517L367 773Z" />
<glyph unicode="&#xde;" horiz-adv-x="676" d="M205 155V275H374Q437 275 466 296T496 362Q496 407 467 427T374 448H205V569H399Q515 569 579 514T643 362Q643 265 578 210T399 155H205ZM71 0V712H224V0H71Z" />
<glyph unicode="&#xdf;" horiz-adv-x="696" d="M61 0V462Q61 602 135 673T347 745Q458 745 523 696T588 556Q588 517 573 482T519 415T406 359V386Q499 367 558 338T646 266T675 164Q675 112 649 74T574 14T461 -8Q399 -8 347 8T258 54L300 163Q337 131 379 117T465
103Q503 104 520 124T537 171Q537 199 515 223T443 268T308 310V421Q362 438 392 457T434 499T446 550Q446 593 421 614T346 635Q283 635 248 598T212 483V0H61Z" />
<glyph unicode="&#xe0;" horiz-adv-x="630" d="M260 -8Q194 -8 143 24T64 115T36 253Q36 332 64 392T143 486T260 520Q321 520 368 490T432 409L420 401V507H569V0H420V104L432 102Q415 50 368 21T260 -8ZM304 107Q359 107 389 145T420 255Q420 327 390 365T304
404Q249 404 218 364T186 253Q186 182 216 145T304 107ZM268 572L114 778H263L361 572H268Z" />
<glyph unicode="&#xe1;" horiz-adv-x="630" d="M260 -8Q194 -8 143 24T64 115T36 253Q36 332 64 392T143 486T260 520Q321 520 368 490T432 409L420 401V507H569V0H420V104L432 102Q415 50 368 21T260 -8ZM304 107Q359 107 389 145T420 255Q420 327 390 365T304
404Q249 404 218 364T186 253Q186 182 216 145T304 107ZM361 572H268L366 778H515L361 572Z" />
<glyph unicode="&#xe2;" horiz-adv-x="630" d="M260 -8Q194 -8 143 24T64 115T36 253Q36 332 64 392T143 486T260 520Q321 520 368 490T432 409L420 401V507H569V0H420V104L432 102Q415 50 368 21T260 -8ZM304 107Q359 107 389 145T420 255Q420 327 390 365T304
404Q249 404 218 364T186 253Q186 182 216 145T304 107ZM256 572H138L269 778H360L491 572H373L315 689L256 572Z" />
<glyph unicode="&#xe3;" horiz-adv-x="630" d="M260 -8Q194 -8 143 24T64 115T36 253Q36 332 64 392T143 486T260 520Q321 520 368 490T432 409L420 401V507H569V0H420V104L432 102Q415 50 368 21T260 -8ZM304 107Q359 107 389 145T420 255Q420 327 390 365T304
404Q249 404 218 364T186 253Q186 182 216 145T304 107ZM139 604Q139 680 171 715T248 750Q274 750 297 737T342 711T382 698Q400 698 412 711T426 747H490Q490 671 458 636T381 601Q355 601 332 614T287 640T247 653Q229 653 217 640T203 604H139Z" />
<glyph unicode="&#xe4;" horiz-adv-x="630" d="M260 -8Q194 -8 143 24T64 115T36 253Q36 332 64 392T143 486T260 520Q321 520 368 490T432 409L420 401V507H569V0H420V104L432 102Q415 50 368 21T260 -8ZM304 107Q359 107 389 145T420 255Q420 327 390 365T304
404Q249 404 218 364T186 253Q186 182 216 145T304 107ZM341 740H480V607H341V740ZM149 740H288V607H149V740Z" />
<glyph unicode="&#xe5;" horiz-adv-x="630" d="M260 -8Q194 -8 143 24T64 115T36 253Q36 332 64 392T143 486T260 520Q321 520 368 490T432 409L420 401V507H569V0H420V104L432 102Q415 50 368 21T260 -8ZM304 107Q359 107 389 145T420 255Q420 327 390 365T304
404Q249 404 218 364T186 253Q186 182 216 145T304 107ZM315 567Q268 567 236 598T204 676Q204 721 236 752T315 784Q345 784 370 770T410 731T425 676Q425 629 393 598T315 567ZM315 629Q334 629 346 642T358 676Q358 695 346 708T315 721Q295 721 283 708T271
676Q271 656 283 643T315 629Z" />
<glyph unicode="&#xe6;" horiz-adv-x="866" d="M627 -8Q509 -8 444 60T378 255Q378 334 407 393T490 486T614 520Q679 520 728 488T804 397T831 262V241H491L492 316H741L703 285Q704 347 680 380T610 414Q559 414 531 376T503 251Q503 186 534 146T637 106Q672
106 710 118T783 156L822 54Q786 25 733 9T627 -8ZM242 -8Q184 -8 139 13T67 71T41 158Q41 214 69 248T158 299T322 316H366V243H331Q278 243 247 234T201 208T187 164Q187 133 208 115T262 97Q294 97 315 111T348 152T359 209V320Q359 366 340 386T276 406Q234
406 189 393T101 354L62 457Q90 475 128 489T207 512T284 520Q389 520 439 467T489 302V206L439 197Q439 99 385 46T242 -8Z" />
<glyph unicode="&#xe7;" horiz-adv-x="509" d="M301 -8Q219 -8 159 24T68 114T36 253Q36 333 70 393T165 486T308 520Q362 520 414 503T498 457L458 352Q428 376 392 389T322 403Q261 403 226 366T191 256Q191 182 225 145T322 108Q356 108 392 121T458 159L498
54Q465 25 412 9T301 -8ZM280 -199Q259 -199 233 -195T185 -181L197 -122Q221 -129 240 -132T275 -136Q296 -136 309 -130T322 -110Q322 -90 289 -90Q280 -90 270 -92T253 -97L233 -76L246 20H327L316 -56L279 -49Q290 -45 305 -43T331 -40Q370 -40 393 -59T416
-110Q416 -148 382 -173T280 -199Z" />
<glyph unicode="&#xe8;" horiz-adv-x="550" d="M507 54Q470 25 417 9T310 -8Q225 -8 164 24T69 115T36 255Q36 333 68 393T155 486T285 520Q356 520 408 489T488 400T516 263V241H169L171 316H426L387 285Q388 349 363 381T289 414Q237 414 209 377T180 267Q180
182 213 144T316 106Q356 106 395 119T467 156L507 54ZM238 572L84 778H233L331 572H238Z" />
<glyph unicode="&#xe9;" horiz-adv-x="550" d="M507 54Q470 25 417 9T310 -8Q225 -8 164 24T69 115T36 255Q36 333 68 393T155 486T285 520Q356 520 408 489T488 400T516 263V241H169L171 316H426L387 285Q388 349 363 381T289 414Q237 414 209 377T180 267Q180
182 213 144T316 106Q356 106 395 119T467 156L507 54ZM331 572H238L336 778H485L331 572Z" />
<glyph unicode="&#xea;" horiz-adv-x="550" d="M507 54Q470 25 417 9T310 -8Q225 -8 164 24T69 115T36 255Q36 333 68 393T155 486T285 520Q356 520 408 489T488 400T516 263V241H169L171 316H426L387 285Q388 349 363 381T289 414Q237 414 209 377T180 267Q180
182 213 144T316 106Q356 106 395 119T467 156L507 54ZM226 572H108L239 778H330L461 572H343L285 689L226 572Z" />
<glyph unicode="&#xeb;" horiz-adv-x="550" d="M507 54Q470 25 417 9T310 -8Q225 -8 164 24T69 115T36 255Q36 333 68 393T155 486T285 520Q356 520 408 489T488 400T516 263V241H169L171 316H426L387 285Q388 349 363 381T289 414Q237 414 209 377T180 267Q180
182 213 144T316 106Q356 106 395 119T467 156L507 54ZM311 740H450V607H311V740ZM119 740H258V607H119V740Z" />
<glyph unicode="&#xec;" horiz-adv-x="274" d="M61 0V507H212V0H61ZM346 572L192 778H341L439 572H346Z" />
<glyph unicode="&#xed;" horiz-adv-x="274" d="M61 0V507H212V0H61ZM439 572H346L444 778H593L439 572Z" />
<glyph unicode="&#xee;" horiz-adv-x="274" d="M61 0V507H212V0H61ZM334 572H216L347 778H438L569 572H451L393 689L334 572Z" />
<glyph unicode="&#xef;" horiz-adv-x="274" d="M61 0V507H212V0H61ZM419 740H558V607H419V740ZM227 740H366V607H227V740Z" />
<glyph unicode="&#xf0;" horiz-adv-x="612" d="M297 -8Q219 -8 161 22T69 106T36 232Q36 302 67 356T154 440T283 470Q360 470 407 435T475 329L434 334Q434 420 397 485T296 590T153 643L187 748Q282 734 355 692T477 589T551 455T576 306Q576 156 503 74T297
-8ZM303 107Q358 107 388 139T418 232Q418 293 389 325T303 358Q246 358 216 326T186 232Q186 170 215 139T303 107ZM175 493L153 571L550 681L570 604L175 493Z" />
<glyph unicode="&#xf1;" horiz-adv-x="612" d="M61 0V362Q61 398 60 434T53 507H195L206 408L195 409Q221 463 267 491T375 520Q554 520 554 307V0H403V300Q403 354 384 378T322 402Q272 402 242 370T212 284V0H61ZM132 604Q132 680 164 715T241 750Q267 750 290
737T335 711T375 698Q393 698 405 711T419 747H483Q483 671 451 636T374 601Q348 601 325 614T280 640T240 653Q222 653 210 640T196 604H132Z" />
<glyph unicode="&#xf2;" horiz-adv-x="604" d="M303 -8Q221 -8 161 24T69 115T36 256Q36 337 68 396T161 487T303 520Q383 520 443 488T535 396T568 256Q568 175 536 116T443 24T303 -8ZM303 107Q358 107 388 143T418 256Q418 331 388 367T303 404Q247 404 217
368T186 256Q186 180 216 144T303 107ZM256 572L102 778H251L349 572H256Z" />
<glyph unicode="&#xf3;" horiz-adv-x="604" d="M303 -8Q221 -8 161 24T69 115T36 256Q36 337 68 396T161 487T303 520Q383 520 443 488T535 396T568 256Q568 175 536 116T443 24T303 -8ZM303 107Q358 107 388 143T418 256Q418 331 388 367T303 404Q247 404 217
368T186 256Q186 180 216 144T303 107ZM349 572H256L354 778H503L349 572Z" />
<glyph unicode="&#xf4;" horiz-adv-x="604" d="M303 -8Q221 -8 161 24T69 115T36 256Q36 337 68 396T161 487T303 520Q383 520 443 488T535 396T568 256Q568 175 536 116T443 24T303 -8ZM303 107Q358 107 388 143T418 256Q418 331 388 367T303 404Q247 404 217
368T186 256Q186 180 216 144T303 107ZM244 572H126L257 778H348L479 572H361L303 689L244 572Z" />
<glyph unicode="&#xf5;" horiz-adv-x="604" d="M303 -8Q221 -8 161 24T69 115T36 256Q36 337 68 396T161 487T303 520Q383 520 443 488T535 396T568 256Q568 175 536 116T443 24T303 -8ZM303 107Q358 107 388 143T418 256Q418 331 388 367T303 404Q247 404 217
368T186 256Q186 180 216 144T303 107ZM127 604Q127 680 159 715T236 750Q262 750 285 737T330 711T370 698Q388 698 400 711T414 747H478Q478 671 446 636T369 601Q343 601 320 614T275 640T235 653Q217 653 205 640T191 604H127Z" />
<glyph unicode="&#xf6;" horiz-adv-x="604" d="M303 -8Q221 -8 161 24T69 115T36 256Q36 337 68 396T161 487T303 520Q383 520 443 488T535 396T568 256Q568 175 536 116T443 24T303 -8ZM303 107Q358 107 388 143T418 256Q418 331 388 367T303 404Q247 404 217
368T186 256Q186 180 216 144T303 107ZM329 740H468V607H329V740ZM137 740H276V607H137V740Z" />
<glyph unicode="&#xf7;" horiz-adv-x="600" d="M234 421V541H354V421H234ZM234 32V152H354V32H234ZM546 341V238H54V341H546Z" />
<glyph unicode="&#xf8;" horiz-adv-x="604" d="M303 -8Q221 -8 161 24T69 115T36 256Q36 337 68 396T161 487T303 520Q383 520 443 488T535 396T568 256Q568 175 536 116T443 24T303 -8ZM164 -64L93 -22L440 574L512 532L164 -64ZM303 106Q360 106 390 142T421
256Q421 332 391 369T303 406Q244 406 214 369T183 256Q183 179 213 143T303 106Z" />
<glyph unicode="&#xf9;" horiz-adv-x="606" d="M247 -8Q152 -8 105 45T58 205V507H209V202Q209 155 228 133T289 110Q335 110 364 142T393 227V507H545V0H398V101L411 100Q389 47 347 20T247 -8ZM256 572L102 778H251L349 572H256Z" />
<glyph unicode="&#xfa;" horiz-adv-x="606" d="M247 -8Q152 -8 105 45T58 205V507H209V202Q209 155 228 133T289 110Q335 110 364 142T393 227V507H545V0H398V101L411 100Q389 47 347 20T247 -8ZM349 572H256L354 778H503L349 572Z" />
<glyph unicode="&#xfb;" horiz-adv-x="606" d="M247 -8Q152 -8 105 45T58 205V507H209V202Q209 155 228 133T289 110Q335 110 364 142T393 227V507H545V0H398V101L411 100Q389 47 347 20T247 -8ZM244 572H126L257 778H348L479 572H361L303 689L244 572Z" />
<glyph unicode="&#xfc;" horiz-adv-x="606" d="M247 -8Q152 -8 105 45T58 205V507H209V202Q209 155 228 133T289 110Q335 110 364 142T393 227V507H545V0H398V101L411 100Q389 47 347 20T247 -8ZM329 740H468V607H329V740ZM137 740H276V607H137V740Z" />
<glyph unicode="&#xfd;" horiz-adv-x="551" d="M58 -228L23 -112Q70 -103 100 -90T151 -56T184 -7L223 80L263 139L412 507H561L328 -26Q297 -96 257 -137T167 -199T58 -228ZM227 -38L-10 507H147L293 139L227 -38ZM321 572H228L326 778H475L321 572Z" />
<glyph unicode="&#xfe;" horiz-adv-x="632" d="M61 -216V736H212V391L200 409Q216 460 262 490T371 520Q437 520 487 486T567 392T596 253Q596 174 567 115T488 24T371 -8Q309 -8 263 21T200 102L212 121V-216H61ZM328 107Q384 107 414 144T444 253Q444 324 414
364T328 404Q271 404 241 366T211 255Q211 183 241 145T328 107Z" />
<glyph unicode="&#xff;" horiz-adv-x="551" d="M58 -228L23 -112Q70 -103 100 -90T151 -56T184 -7L223 80L263 139L412 507H561L328 -26Q297 -96 257 -137T167 -199T58 -228ZM227 -38L-10 507H147L293 139L227 -38ZM301 740H440V607H301V740ZM109 740H248V607H109V740Z" />
<glyph unicode="&#x2013;" horiz-adv-x="505" d="M0 227V315H505V227H0Z" />
<glyph unicode="&#x2014;" horiz-adv-x="1010" d="M0 227V315H1010V227H0Z" />
<glyph unicode="&#x2018;" horiz-adv-x="263" d="M140 720L199 673Q164 638 149 607T133 539L99 576H213V414H49V517Q49 574 69 621T140 720Z" />
<glyph unicode="&#x2019;" horiz-adv-x="263" d="M121 406L63 453Q98 489 113 520T128 587L164 551H49V712H213V609Q213 551 193 504T121 406Z" />
<glyph unicode="&#x201a;" horiz-adv-x="263" d="M121 -144L63 -98Q98 -63 113 -32T128 36L164 0H49V161H213V57Q213 1 193 -47T121 -144Z" />
<glyph unicode="&#x201c;" horiz-adv-x="471" d="M140 720L199 673Q164 638 149 607T133 539L99 576H213V414H49V517Q49 574 69 621T140 720ZM349 720L408 673Q373 638 358 607T342 539L308 576H422V414H258V517Q258 574 278 621T349 720Z" />
<glyph unicode="&#x201d;" horiz-adv-x="471" d="M121 406L63 453Q98 489 113 520T128 587L164 551H49V712H213V609Q213 551 193 504T121 406ZM330 406L272 453Q307 489 322 520T337 587L373 551H258V712H422V609Q422 551 402 504T330 406Z" />
<glyph unicode="&#x201e;" horiz-adv-x="471" d="M121 -144L63 -98Q98 -63 113 -32T128 36L164 0H49V161H213V57Q213 1 193 -47T121 -144ZM330 -144L272 -98Q307 -63 322 -32T337 36L373 0H258V161H422V57Q422 1 402 -47T330 -144Z" />
<glyph unicode="&#x2022;" horiz-adv-x="529" d="M265 89Q216 89 174 112T107 177T82 268Q82 314 105 355T170 421T265 447Q314 447 355 424T421 360T447 268Q447 219 423 178T357 113T265 89Z" />
<glyph unicode="&#x2039;" horiz-adv-x="305" d="M157 85L21 267L157 451H283L152 268L282 85H157Z" />
<glyph unicode="&#x203a;" horiz-adv-x="305" d="M149 85H24L154 268L22 451H149L284 267L149 85Z" />
</font>
</defs>
</svg>
