<svg clip-rule="evenodd" fill-rule="evenodd" stroke-linejoin="round" stroke-miterlimit="2" viewBox="0 0 256 256" xmlns="http://www.w3.org/2000/svg"><path d="m256 64c0-35.323-28.677-64-64-64h-128c-35.323 0-64 28.677-64 64v128c0 35.323 28.677 64 64 64h128c35.323 0 64-28.677 64-64z" fill="#f9423a"/><g fill="#fff"><path d="m.035-.667h.175l.184.257v-.257h.209v.667h-.176l-.183-.256v.256h-.209zm.119.587v-.462l.33.462h.026v-.507h-.026v.462l-.33-.462h-.026v.507z" fill-rule="nonzero" transform="matrix(140.4444 0 0 140.4444 30.18011155 154.0639851)"/><path d="m.02-.333c0-.048.009-.093.028-.136.018-.043.043-.08.075-.112.031-.031.068-.056.111-.075.043-.018.088-.027.136-.027s.093.009.136.027c.043.019.08.044.112.075.031.032.056.069.075.112.018.043.027.088.027.136s-.009.093-.027.136c-.019.043-.044.08-.075.111-.032.032-.069.057-.112.075-.043.019-.088.028-.136.028s-.093-.009-.136-.028c-.043-.018-.08-.043-.111-.075-.032-.031-.057-.068-.075-.111-.019-.043-.028-.088-.028-.136zm.094 0c0 .035.007.068.02.099s.032.059.055.082.051.042.082.055.064.02.099.02.069-.007.1-.02.058-.032.081-.055.042-.051.055-.082.02-.064.02-.099-.007-.068-.02-.1c-.013-.031-.032-.058-.055-.081s-.05-.042-.081-.055-.065-.02-.1-.02-.068.007-.099.02-.059.032-.082.055-.042.05-.055.081c-.013.032-.02.065-.02.1zm.116 0c0 .019.004.037.011.054s.017.032.03.045.028.023.045.03.035.011.054.011.038-.004.055-.011.031-.017.044-.03.023-.028.03-.045.011-.035.011-.054-.004-.038-.011-.055-.017-.031-.03-.044-.027-.023-.044-.03-.036-.011-.055-.011-.037.004-.054.011-.032.017-.045.03-.023.027-.03.044-.011.036-.011.055zm.14.23c-.032 0-.062-.006-.089-.018-.028-.012-.052-.029-.073-.05s-.038-.045-.05-.073c-.012-.027-.018-.057-.018-.089s.006-.062.018-.09c.012-.027.029-.051.05-.073.021-.021.045-.037.073-.049.027-.012.057-.018.089-.018s.062.006.09.018c.027.012.051.028.073.049.021.022.037.046.049.073.012.028.018.058.018.09s-.006.062-.018.089c-.012.028-.028.052-.049.073-.022.021-.046.038-.073.05-.028.012-.058.018-.09.018z" fill-rule="nonzero" transform="matrix(140.4444 0 0 140.4444 119.78363875 154.0639851)"/><path d="m.035-.667h.175l.184.257v-.257h.209v.667h-.176l-.183-.256v.256h-.209z" fill-rule="nonzero" transform="matrix(41.044992937 0 0 41.044992937 35.12843591 197.1687122)"/><path d="m.02-.333c0-.048.009-.093.028-.136.018-.043.043-.08.075-.112.031-.031.068-.056.111-.075.043-.018.088-.027.136-.027s.093.009.136.027c.043.019.08.044.112.075.031.032.056.069.075.112.018.043.027.088.027.136s-.009.093-.027.136c-.019.043-.044.08-.075.111-.032.032-.069.057-.112.075-.043.019-.088.028-.136.028s-.093-.009-.136-.028c-.043-.018-.08-.043-.111-.075-.032-.031-.057-.068-.075-.111-.019-.043-.028-.088-.028-.136zm.21 0c0 .019.004.037.011.054s.017.032.03.045.028.023.045.03.035.011.054.011.038-.004.055-.011.031-.017.044-.03.023-.028.03-.045.011-.035.011-.054-.004-.038-.011-.055-.017-.031-.03-.044-.027-.023-.044-.03-.036-.011-.055-.011-.037.004-.054.011-.032.017-.045.03-.023.027-.03.044-.011.036-.011.055z" fill-rule="nonzero" transform="matrix(41.044992937 0 0 41.044992937 61.31546466 197.1687122)"/><path d="m.035-.667h.175l.184.257v-.257h.209v.667h-.176l-.183-.256v.256h-.209z" fill-rule="nonzero" transform="matrix(41.044992937 0 0 41.044992937 91.68773653 197.1687122)"/><path d="m.017-.207c.015.005.03.008.046.011.013.003.029.006.046.008s.034.003.051.003c.031 0 .046-.011.046-.034 0-.009-.005-.018-.014-.027s-.021-.019-.035-.03c-.015-.01-.03-.023-.046-.036-.017-.013-.032-.029-.046-.046-.015-.017-.027-.037-.036-.059-.009-.021-.014-.046-.014-.074 0-.031.006-.059.017-.083s.027-.044.047-.06.044-.028.071-.037c.027-.008.055-.012.086-.012.016 0 .032.001.048.002.016.002.03.004.043.005.015.002.029.004.043.006v.187l-.036-.004c-.007-.001-.014-.001-.021-.001-.004 0-.009 0-.015 0-.006.001-.012.002-.017.003s-.01.004-.014.007-.006.008-.006.014c0 .005.005.012.014.02s.02.017.033.028.027.023.043.037c.015.014.03.03.043.048s.024.038.033.061.013.048.013.076c0 .029-.005.057-.014.082-.009.026-.024.048-.043.067-.02.02-.045.034-.076.046-.031.011-.067.016-.109.016-.025 0-.049-.001-.07-.003-.022-.003-.041-.006-.058-.009-.019-.003-.037-.007-.053-.012z" fill-rule="nonzero" transform="matrix(41.044992937 0 0 41.044992937 117.87476528 197.1687122)"/><path d="m.035-.667h.393v.175h-.18v.074h.177v.166h-.177v.077h.187v.175h-.4z" fill-rule="nonzero" transform="matrix(41.044992937 0 0 41.044992937 136.34554462 197.1687122)"/><path d="m.035-.667h.175l.184.257v-.257h.209v.667h-.176l-.183-.256v.256h-.209z" fill-rule="nonzero" transform="matrix(41.044992937 0 0 41.044992937 155.22595346 197.1687122)"/><path d="m.017-.207c.015.005.03.008.046.011.013.003.029.006.046.008s.034.003.051.003c.031 0 .046-.011.046-.034 0-.009-.005-.018-.014-.027s-.021-.019-.035-.03c-.015-.01-.03-.023-.046-.036-.017-.013-.032-.029-.046-.046-.015-.017-.027-.037-.036-.059-.009-.021-.014-.046-.014-.074 0-.031.006-.059.017-.083s.027-.044.047-.06.044-.028.071-.037c.027-.008.055-.012.086-.012.016 0 .032.001.048.002.016.002.03.004.043.005.015.002.029.004.043.006v.187l-.036-.004c-.007-.001-.014-.001-.021-.001-.004 0-.009 0-.015 0-.006.001-.012.002-.017.003s-.01.004-.014.007-.006.008-.006.014c0 .005.005.012.014.02s.02.017.033.028.027.023.043.037c.015.014.03.03.043.048s.024.038.033.061.013.048.013.076c0 .029-.005.057-.014.082-.009.026-.024.048-.043.067-.02.02-.045.034-.076.046-.031.011-.067.016-.109.016-.025 0-.049-.001-.07-.003-.022-.003-.041-.006-.058-.009-.019-.003-.037-.007-.053-.012z" fill-rule="nonzero" transform="matrix(41.044992937 0 0 41.044992937 181.41298221 197.1687122)"/><path d="m.035-.667h.393v.175h-.18v.074h.177v.166h-.177v.077h.187v.175h-.4z" fill-rule="nonzero" transform="matrix(41.044992937 0 0 41.044992937 199.88259118 197.1687122)"/><path d="m148 104h47v2h-47z" transform="matrix(.707107 -.707107 1.70711 1.70711 -129.015 49.0226)"/></g></svg>