<svg xmlns="http://www.w3.org/2000/svg" width="240" height="30" viewBox="0 0 240 30">
  <g fill="none" fill-rule="evenodd">
    <path d="M0 0h30v30H0zM30 0h30v30H30zM60 0h30v30H60zM90 0h30v30H90zM120 0h30v30h-30zM180 0h30v30h-30zM150 0h30v30h-30zM210 0h30v30h-30z"/>
    <path fill="#4AA94F" d="M14.362 5.703c.157-.312.386-.52.687-.625.3-.104.601-.104.902 0 .301.104.53.313.687.625l2.551 5.156 5.73.82c.34.053.609.209.805.47a1.3 1.3 0 0 1 .275.859 1.196 1.196 0 0 1-.373.82l-4.16 4.024.98 5.703c.053.312-.006.605-.176.879-.17.273-.412.449-.726.527-.314.078-.615.039-.903-.117L15.5 22.187l-5.141 2.657a1.216 1.216 0 0 1-.903.117 1.152 1.152 0 0 1-.726-.527 1.229 1.229 0 0 1-.177-.88l.981-5.702-4.16-4.024a1.196 1.196 0 0 1-.373-.82 1.3 1.3 0 0 1 .275-.86c.196-.26.464-.416.805-.468l5.73-.82 2.55-5.157zM44.362 5.703c.157-.312.386-.52.687-.625.3-.104.601-.104.902 0 .301.104.53.313.687.625l2.551 5.156 5.73.82c.34.053.609.209.805.47a1.3 1.3 0 0 1 .275.859 1.196 1.196 0 0 1-.373.82l-4.16 4.024.98 5.703c.053.312-.006.605-.176.879-.17.273-.412.449-.726.527-.314.078-.615.039-.903-.117L45.5 22.187l-5.141 2.657a1.216 1.216 0 0 1-.903.117 1.152 1.152 0 0 1-.726-.527 1.229 1.229 0 0 1-.177-.88l.981-5.702-4.16-4.024a1.196 1.196 0 0 1-.373-.82 1.3 1.3 0 0 1 .275-.86c.196-.26.464-.416.805-.468l5.73-.82 2.55-5.157zM74.362 5.703c.157-.312.386-.52.687-.625.3-.104.601-.104.902 0 .301.104.53.313.687.625l2.551 5.156 5.73.82c.34.053.609.209.805.47a1.3 1.3 0 0 1 .275.859 1.196 1.196 0 0 1-.373.82l-4.16 4.024.98 5.703c.053.312-.006.605-.176.879-.17.273-.412.449-.726.527-.314.078-.615.039-.903-.117L75.5 22.187l-5.141 2.657a1.216 1.216 0 0 1-.903.117 1.152 1.152 0 0 1-.726-.527 1.229 1.229 0 0 1-.177-.88l.981-5.702-4.16-4.024a1.196 1.196 0 0 1-.373-.82 1.3 1.3 0 0 1 .275-.86c.196-.26.464-.416.805-.468l5.73-.82 2.55-5.157zM104.362 5.703c.157-.312.386-.52.687-.625.3-.104.601-.104.902 0 .301.104.53.313.687.625l2.551 5.156 5.73.82c.34.053.609.209.805.47a1.3 1.3 0 0 1 .275.859 1.196 1.196 0 0 1-.373.82l-4.16 4.024.98 5.703c.053.312-.006.605-.176.879-.17.273-.412.449-.726.527-.314.078-.615.039-.903-.117l-5.141-2.657-5.141 2.657a1.216 1.216 0 0 1-.903.117 1.152 1.152 0 0 1-.726-.527 1.229 1.229 0 0 1-.177-.88l.981-5.702-4.16-4.024a1.196 1.196 0 0 1-.373-.82 1.3 1.3 0 0 1 .275-.86c.196-.26.464-.416.805-.468l5.73-.82 2.55-5.157zM134.362 5.703c.157-.312.386-.52.687-.625.3-.104.601-.104.902 0 .301.104.53.313.687.625l2.551 5.156 5.73.82c.34.053.609.209.805.47a1.3 1.3 0 0 1 .275.859 1.196 1.196 0 0 1-.373.82l-4.16 4.024.98 5.703c.053.312-.006.605-.176.879-.17.273-.412.449-.726.527-.314.078-.615.039-.903-.117l-5.141-2.657-5.141 2.657a1.216 1.216 0 0 1-.903.117 1.152 1.152 0 0 1-.726-.527 1.229 1.229 0 0 1-.177-.88l.981-5.702-4.16-4.024a1.196 1.196 0 0 1-.373-.82 1.3 1.3 0 0 1 .275-.86c.196-.26.464-.416.805-.468l5.73-.82 2.55-5.157z"/>
    <path fill="#57B75C" d="M164.064 5.006c.169-.336.415-.56.738-.672.324-.112.647-.112.97 0 .324.112.57.336.739.672l2.742 5.543 6.16.882c.366.056.654.224.865.504.211.28.31.587.296.923-.014.336-.148.63-.401.882l-4.472 4.325 1.054 6.131c.057.336-.007.651-.19.945a1.238 1.238 0 0 1-.78.567 1.307 1.307 0 0 1-.97-.126l-5.528-2.855-5.527 2.855c-.309.168-.632.21-.97.126a1.238 1.238 0 0 1-.78-.567 1.321 1.321 0 0 1-.19-.945l1.054-6.13-4.472-4.326a1.286 1.286 0 0 1-.4-.882 1.398 1.398 0 0 1 .295-.923c.21-.28.499-.448.865-.504l6.16-.882 2.742-5.543zM224.064 5.006c.169-.336.415-.56.738-.672.324-.112.647-.112.97 0 .324.112.57.336.739.672l2.742 5.543 6.16.882c.366.056.654.224.865.504.211.28.31.587.296.923-.014.336-.148.63-.401.882l-4.472 4.325 1.054 6.131c.057.336-.007.651-.19.945a1.238 1.238 0 0 1-.78.567 1.307 1.307 0 0 1-.97-.126l-5.528-2.855-5.527 2.855c-.309.168-.632.21-.97.126a1.238 1.238 0 0 1-.78-.567 1.321 1.321 0 0 1-.19-.945l1.054-6.13-4.472-4.326a1.286 1.286 0 0 1-.4-.882 1.398 1.398 0 0 1 .295-.923c.21-.28.499-.448.865-.504l6.16-.882 2.742-5.543z"/>
    <path fill="#61C166" d="M193.7 3.809c.179-.36.44-.6.784-.72.344-.119.688-.119 1.032 0 .344.12.605.36.785.72l2.915 5.93 6.55.943c.388.06.694.24.919.539.224.3.329.629.314.988a1.38 1.38 0 0 1-.427.943l-4.754 4.627 1.121 6.559c.06.36-.007.696-.202 1.01a1.317 1.317 0 0 1-.83.607c-.358.09-.702.045-1.031-.135L195 22.766l-5.876 3.054c-.329.18-.673.225-1.032.135a1.317 1.317 0 0 1-.83-.606 1.42 1.42 0 0 1-.201-1.011l1.121-6.559-4.754-4.627a1.38 1.38 0 0 1-.427-.943c-.015-.36.09-.689.314-.988.225-.3.531-.48.92-.54l6.549-.943 2.915-5.93z"/>
  </g>
</svg>
