<?xml version="1.0" encoding="utf-8"?>
<!-- Generator: Adobe Illustrator 22.0.1, SVG Export Plug-In . SVG Version: 6.00 Build 0)  -->
<svg version="1.1" id="Layer_1" xmlns="http://www.w3.org/2000/svg" xmlns:xlink="http://www.w3.org/1999/xlink" x="0px" y="0px"
	 viewBox="0 0 33 33" style="enable-background:new 0 0 33 33;" xml:space="preserve">
<style type="text/css">
	.st0{fill:#FFFFFF;}
	.st1{fill:#FFFFFF;stroke:#FFCE04;stroke-width:0.2268;stroke-miterlimit:10;}
	.st2{font-family:'Roboto-Regular';}
	.st3{font-size:6.4727px;}
	.st4{font-family:'Roboto-Black';}
</style>
<g>
	<g id="Layer_2_1_">
		<polygon class="st0" points="0,16.5 1.5,16 1.5,14.5 2.4,15.7 3.9,15.3 3,16.5 3.9,17.7 2.4,17.3 1.5,18.5 1.5,17 		"/>
		<polygon class="st0" points="2,23.6 3.4,23.2 3.4,21.6 4.4,22.9 5.9,22.4 5,23.6 5.9,24.9 4.4,24.4 3.4,25.6 3.4,24.1 		"/>
		<polygon class="st0" points="7.3,28.9 8.8,28.4 8.8,26.9 9.8,28.1 11.3,27.6 10.3,28.9 11.3,30.1 9.8,29.6 8.8,30.9 8.8,29.3 		
			"/>
		<polygon class="st0" points="2,9.4 3.5,8.9 3.5,7.4 4.4,8.6 5.9,8.1 5,9.4 5.9,10.6 4.4,10.1 3.5,11.4 3.5,9.8 		"/>
		<polygon class="st0" points="8.7,2.3 9.7,3.6 11.1,3.1 10.2,4.3 11.1,5.6 9.7,5.1 8.7,6.4 8.7,4.8 7.2,4.4 8.7,3.9 		"/>
		<polygon class="st0" points="16.1,0.4 17,1.6 18.5,1.1 17.6,2.4 18.5,3.6 17,3.1 16.1,4.4 16.1,2.9 14.6,2.4 16.1,1.9 		"/>
		<polygon class="st0" points="25.6,3 24.7,4.2 25.6,5.5 24.1,5 23.2,6.2 23.2,4.7 21.7,4.2 23.2,3.8 23.2,2.2 24.1,3.5 		"/>
		<polygon class="st0" points="33,17.6 31.5,17.1 30.6,18.4 30.6,16.8 29.1,16.4 30.6,15.9 30.6,14.4 31.5,15.6 33,15.1 32.1,16.4 
					"/>
		<polygon class="st1" points="31.1,24.8 29.6,24.3 28.6,25.5 28.6,24 27.1,23.5 28.6,23.1 28.6,21.5 29.6,22.8 31,22.3 30.1,23.5 
					"/>
		<polygon class="st0" points="31,8.2 30.1,9.5 31,10.7 29.5,10.2 28.6,11.5 28.6,9.9 27.1,9.5 28.6,9 28.6,7.5 29.5,8.7 		"/>
		<polygon class="st0" points="16.1,32.6 16.1,31.1 14.6,30.6 16.1,30.1 16.1,28.6 17,29.8 18.5,29.4 17.6,30.6 18.6,31.9 17,31.4 
					"/>
		<polygon class="st0" points="25.6,30 24.1,29.5 23.2,30.8 23.2,29.2 21.7,28.8 23.2,28.3 23.2,26.8 24.1,28 25.6,27.5 24.7,28.8 
					"/>
		<text transform="matrix(1.0296 0 0 1 11.9893 15.4277)" class="st0 st2 st3">WP</text>
		<text transform="matrix(1.0296 0 0 1 8.5107 21.3144)" class="st0 st4 st3">GDPR</text>
	</g>
	<g id="Laag_3">
		<path class="st0" d="M24.9,15.5"/>
		<path class="st0" d="M8.2,15.5"/>
		<polygon class="st0" points="25.2,16.1 8.8,16.1 8.6,16 25,16 		"/>
	</g>
</g>
</svg>
